<svg xmlns="http://www.w3.org/2000/svg" width="300" height="300" viewBox="0 0 128 128" version="1.1"><path d="" stroke="none" fill="#f03c44" fill-rule="evenodd"/><path d="M 52 38.079 C 38.757 44.066, 32.707 58.978, 37.643 73.464 C 39.875 80.017, 48.983 89.125, 55.536 91.357 C 78.844 99.299, 99.299 78.844, 91.357 55.536 C 89.125 48.983, 80.017 39.875, 73.464 37.643 C 66.785 35.367, 57.584 35.554, 52 38.079 M 54.640 38.632 C 44.601 41.715, 36.794 53.209, 37.117 64.432 C 37.229 68.328, 37.272 68.268, 38.143 63.012 C 39.376 55.570, 42.319 49.848, 47.169 45.466 C 51.915 41.178, 55.973 39.320, 63.231 38.111 L 68.500 37.234 64 37.187 C 61.525 37.161, 57.313 37.811, 54.640 38.632 M 70.333 38.667 C 70.700 39.033, 71.300 39.033, 71.667 38.667 C 72.033 38.300, 71.733 38, 71 38 C 70.267 38, 69.967 38.300, 70.333 38.667 M 56.271 45.095 C 48.275 49.053, 43 57.164, 43 65.500 C 43 81.466, 59.046 90.658, 73.753 83.116 C 89.734 74.921, 89.752 51.224, 73.782 44.553 C 68.549 42.367, 61.330 42.590, 56.271 45.095 M 64.978 56.696 L 62 61.392 62 57.196 C 62 53.387, 61.769 53, 59.500 53 C 57.002 53, 57 53.007, 56.850 63.500 C 56.768 69.275, 56.655 74.563, 56.600 75.250 C 56.545 75.938, 57.471 76.638, 58.658 76.807 C 60.368 77.051, 60.960 76.460, 61.509 73.959 L 62.202 70.804 65.560 74.058 C 68.384 76.796, 69.163 77.110, 70.459 76.034 C 72.744 74.137, 72.384 73.044, 68.316 69.527 L 64.632 66.342 68.290 60.493 C 71.059 56.067, 71.682 54.322, 70.852 53.322 C 69.079 51.185, 68.125 51.733, 64.978 56.696 M 86.885 64.707 C 86.516 70.679, 85.926 72.645, 83.442 76.179 C 78.484 83.234, 73.217 86.273, 64.756 86.962 L 57.500 87.554 62.133 88.321 C 69.717 89.576, 75.620 87.510, 81.635 81.496 C 85.839 77.291, 86.993 75.363, 87.958 70.926 C 88.740 67.336, 88.833 64.147, 88.235 61.500 C 87.360 57.631, 87.316 57.736, 86.885 64.707 M 38 71 C 38 71.733, 38.300 72.033, 38.667 71.667 C 39.033 71.300, 39.033 70.700, 38.667 70.333 C 38.300 69.967, 38 70.267, 38 71" stroke="none" fill="#ec3c44" fill-rule="evenodd"/></svg>