<?xml version="1.0" encoding="utf-8"?>
<!-- Generator: Adobe Illustrator 27.5.0, SVG Export Plug-In . SVG Version: 6.00 Build 0)  -->
<svg version="1.1" xmlns="http://www.w3.org/2000/svg" xmlns:xlink="http://www.w3.org/1999/xlink" x="0px" y="0px"
	 viewBox="0 0 500 500" style="enable-background:new 0 0 500 500;" xml:space="preserve">
<g id="BACKGROUND">
	<rect style="fill:#FFFFFF;" width="500" height="500"/>
</g>
<g id="OBJECTS">
	<path style="fill:#ECEAE7;" d="M72.248,476.545H25.701c-3.826,0-6.955-3.13-6.955-6.955v-1.223c0-3.826,3.13-6.955,6.955-6.955
		h46.548c3.825,0,6.955,3.13,6.955,6.955v1.223C79.204,473.415,76.074,476.545,72.248,476.545z"/>
	<path style="fill:#ECEAE7;" d="M470.312,476.545h-46.548c-3.826,0-6.955-3.13-6.955-6.955v-1.223c0-3.826,3.13-6.955,6.955-6.955
		h46.548c3.825,0,6.955,3.13,6.955,6.955v1.223C477.267,473.415,474.137,476.545,470.312,476.545z"/>
	<path style="fill:#ECEAE7;" d="M406.796,480.214H94.185c-6.6,0-12-5.4-12-12v-15.898c0-6.6,5.4-12,12-12h312.611
		c6.6,0,12,5.4,12,12v15.898C418.796,474.814,413.396,480.214,406.796,480.214z"/>
	<path style="fill:#ECEAE7;" d="M381.115,443.526H230.847c-6.6,0-12-5.4-12-12v-15.898c0-6.6,5.4-12,12-12h150.268
		c6.6,0,12,5.4,12,12v15.898C393.115,438.126,387.715,443.526,381.115,443.526z"/>
	<g>
		<path style="fill:#658372;" d="M454.241,413.678c0,0-26.609-73.859,22.281-140.706
			C476.522,272.972,501.098,358.098,454.241,413.678z"/>
		<path style="fill:#658372;" d="M445.325,425.084c0,0-45.891-54.098-25.66-126.148
			C419.666,298.936,467.401,363.214,445.325,425.084z"/>
		<path style="fill:#94B6A3;" d="M448.151,402.629c0,0-41.467-75.396,0-156.143C448.151,246.486,489.349,334.428,448.151,402.629z"
			/>
		<polygon style="fill:#E1A265;" points="475.422,385.251 420.881,385.251 430.172,467.915 466.131,467.915 		"/>
		<path style="fill:#658372;" d="M444.072,267.822c-0.501-0.067-0.905,0.236-1.072,0.7c-0.346,0.964-0.688,1.913-0.943,2.905
			c-0.127,0.492-0.267,0.983-0.38,1.478c-0.103,0.45-0.164,1.146,0.046,1.636c0.038,0.444,0.138,0.976,0.596,1.097
			c0.475,0.126,0.82-0.33,1.054-0.71c0.386-0.329,0.633-0.912,0.745-1.35c0.13-0.513,0.22-1.04,0.329-1.558
			c0.227-1.072,0.344-2.151,0.471-3.239C444.974,268.301,444.503,267.88,444.072,267.822z"/>
		<path style="fill:#658372;" d="M447.252,286.137c-0.112-0.308-0.213-0.634-0.359-0.928c-0.086-0.173-0.198-0.315-0.33-0.454
			c-0.097-0.102-0.253-0.186-0.313-0.313c-0.126-0.261-0.54-0.185-0.607,0.079c-0.034,0.132-0.197,0.275-0.275,0.387
			c-0.096,0.138-0.161,0.243-0.218,0.411c-0.095,0.281-0.164,0.591-0.236,0.88c-0.161,0.651-0.1,1.371-0.143,2.04
			c-0.019,0.295-0.069,0.595-0.072,0.891c-0.003,0.313,0.066,0.646,0.103,0.957c0.075,0.62,0.3,1.318,0.624,1.851
			c0.15,0.246,0.468,0.273,0.675,0.087c0.457-0.411,0.83-1.042,1.042-1.621c0.258-0.705,0.3-1.422,0.29-2.165
			C447.424,287.576,447.48,286.763,447.252,286.137z"/>
		<path style="fill:#658372;" d="M453.861,268.239c-0.069-0.532-0.147-1.062-0.25-1.589c-0.044-0.227-0.083-0.458-0.158-0.676
			c-0.1-0.292-0.29-0.524-0.47-0.77c-0.214-0.292-0.496-0.469-0.874-0.418c-0.322,0.043-0.661,0.29-0.729,0.628
			c-0.056,0.28-0.151,0.578-0.16,0.863c-0.006,0.174,0.034,0.347,0.059,0.519c0.004,0.029,0.006,0.044,0.009,0.061
			c0.002,0.016,0.003,0.028,0.006,0.054c0.054,0.46,0.098,0.92,0.123,1.382c0.012,0.213,0.01,0.428,0.026,0.641
			c0.024,0.336,0.139,0.615,0.246,0.927c0.081,0.237,0.145,0.484,0.274,0.7c0.111,0.185,0.232,0.357,0.335,0.548
			c0.179,0.332,0.657,0.301,0.843,0c0.114-0.185,0.246-0.362,0.356-0.548c0.129-0.216,0.189-0.46,0.256-0.7
			c0.081-0.294,0.191-0.621,0.187-0.927C453.938,268.704,453.891,268.467,453.861,268.239z"/>
		<path style="fill:#658372;" d="M457.651,295.917c-0.105-0.563-0.553-1.368-1.237-1.228c-0.661,0.136-0.844,0.929-0.911,1.518
			c-0.004,0.032-0.033,0.273-0.035,0.302c-0.017,0.113-0.037,0.227-0.054,0.34c-0.047,0.319-0.076,0.64-0.107,0.96
			c-0.006,0.051-0.008,0.062-0.009,0.076c-0.006,0.043-0.012,0.086-0.019,0.129c-0.017,0.106-0.034,0.211-0.053,0.316
			c-0.064,0.358-0.087,0.7-0.098,1.061c-0.009,0.298,0.006,0.578,0.087,0.869c0.068,0.243,0.196,0.459,0.303,0.686
			c0.102,0.216,0.397,0.254,0.588,0.154c0.557-0.292,0.929-0.643,1.181-1.23c0.144-0.335,0.268-0.633,0.322-0.994
			c0.053-0.355,0.1-0.711,0.133-1.069C457.801,297.181,457.767,296.54,457.651,295.917z"/>
		<path style="fill:#658372;" d="M437.23,301.849c-0.052-0.345-0.086-0.702-0.237-1.019c-0.118-0.249-0.243-0.472-0.331-0.735
			c-0.12-0.36-0.706-0.527-0.893-0.117c-0.124,0.273-0.277,0.5-0.439,0.749c-0.192,0.296-0.28,0.656-0.383,0.992
			c-0.204,0.668-0.216,1.422-0.306,2.115c-0.001,0.01-0.028,0.214-0.034,0.258c-0.022,0.166-0.046,0.332-0.069,0.498
			c-0.056,0.398-0.134,0.782-0.082,1.184c0.05,0.385,0.12,0.719,0.263,1.081c0.116,0.294,0.306,0.516,0.505,0.757
			c0.116,0.141,0.395,0.177,0.544,0.07c0.254-0.182,0.491-0.346,0.676-0.602c0.222-0.306,0.375-0.615,0.509-0.968
			c0.251-0.655,0.214-1.442,0.254-2.138C437.249,303.27,437.336,302.547,437.23,301.849z"/>
		<path style="fill:#658372;" d="M448.536,312.461c-0.011-0.348-0.021-0.693-0.136-1.026c-0.127-0.365-0.293-0.603-0.58-0.843
			c-0.269-0.226-0.583-0.276-0.899-0.116c-0.307,0.156-0.529,0.322-0.725,0.622c-0.189,0.289-0.294,0.607-0.381,0.938
			c-0.172,0.651-0.326,1.276-0.411,1.947c-0.035,0.273-0.069,0.546-0.104,0.819c-0.047,0.372,0.036,0.721,0.128,1.08
			c0.051,0.2,0.121,0.386,0.234,0.56c0.054,0.096,0.128,0.174,0.205,0.249c0.003,0.006,0,0.001,0.004,0.011
			c0.068,0.238,0.26,0.428,0.432,0.595c0.147,0.143,0.389,0.182,0.568,0.073c0.19-0.116,0.399-0.236,0.516-0.433
			c0.037-0.042,0.046-0.056,0.047-0.063c0.083-0.052,0.166-0.103,0.237-0.173c0.136-0.126,0.241-0.271,0.332-0.431
			c0.233-0.414,0.381-0.819,0.437-1.292c0.034-0.292,0.058-0.585,0.087-0.877C448.581,313.55,448.553,313.011,448.536,312.461z"/>
		<g>
			<path style="fill:#658372;" d="M439.679,331.817c0.003,0.001,0.005,0.003,0.008,0.004
				C439.745,331.846,439.749,331.847,439.679,331.817z"/>
			<path style="fill:#658372;" d="M440.954,333.95c-0.122-0.473-0.253-0.933-0.523-1.344c-0.129-0.196-0.258-0.434-0.424-0.599
				c-0.09-0.09-0.198-0.151-0.32-0.186c-0.006-0.003-0.004-0.002-0.012-0.005c-0.09-0.037-0.179-0.075-0.27-0.109
				c-0.141-0.053-0.327,0.035-0.397,0.162c-0.101,0.182-0.227,0.355-0.255,0.565c-0.03,0.221-0.013,0.451-0.021,0.674
				c-0.011,0.264,0.015,0.51,0.056,0.773c0.006,0.04,0.012,0.081,0.018,0.121c0.013,0.092,0.023,0.185,0.032,0.277
				c0.048,0.469,0.033,0.947,0.144,1.406c0.061,0.253,0.104,0.503,0.228,0.737c0.102,0.193,0.309,0.367,0.453,0.534
				c0.214,0.249,0.699,0.252,0.911,0c0.141-0.167,0.316-0.347,0.423-0.534c0.165-0.289,0.171-0.628,0.192-0.951
				C441.223,334.963,441.081,334.441,440.954,333.95z"/>
		</g>
		<path style="fill:#658372;" d="M459.76,336.214c-0.058-0.601-0.109-1.205-0.34-1.765c-0.125-0.303-0.238-0.676-0.461-0.924
			c-0.15-0.168-0.33-0.318-0.499-0.468c-0.111-0.098-0.29-0.09-0.368,0.047c-0.11,0.195-0.245,0.38-0.35,0.577
			c-0.139,0.261-0.183,0.584-0.27,0.866c-0.152,0.491-0.232,1.018-0.332,1.524c-0.044,0.222-0.034,0.458-0.087,0.677
			c0.086-0.359-0.016,0.098-0.028,0.17c-0.055,0.331-0.13,0.659-0.136,0.995c-0.008,0.412-0.045,0.858,0.16,1.231
			c0.218,0.398,0.599,0.692,1.074,0.628c0.452-0.061,0.818-0.315,1.038-0.72c0.161-0.296,0.348-0.665,0.422-0.986
			c0.074-0.324,0.101-0.668,0.14-0.999C459.757,336.781,459.787,336.502,459.76,336.214z"/>
		<path style="fill:#658372;" d="M459.087,317.294c-0.254-0.247-0.684-0.323-0.994-0.128c-0.645,0.405-0.867,1.158-1.019,1.868
			c-0.15,0.704-0.262,1.397-0.33,2.114c-0.031,0.33-0.099,0.676-0.095,1.007c0.003,0.291,0.074,0.593,0.113,0.881
			c0.051,0.385,0.171,0.739,0.312,1.101c0.115,0.296,0.35,0.611,0.689,0.657c0.646,0.087,1.09-0.803,1.298-1.295
			c0.131-0.31,0.27-0.643,0.352-0.97c0.095-0.376,0.1-0.806,0.146-1.192c0.074-0.635,0.111-1.249,0.111-1.889
			C459.668,318.702,459.654,317.845,459.087,317.294z"/>
		<path style="fill:#658372;" d="M449.274,353.164c-0.084-0.567-0.196-1.158-0.392-1.699c-0.155-0.427-0.734-1.3-1.29-1.013
			c-0.425,0.219-0.509,0.96-0.507,1.376c0.003,0.548,0.022,1.086-0.027,1.634c-0.047,0.525-0.038,1.051-0.103,1.575
			c-0.023,0.143-0.043,0.286-0.06,0.429c-0.004,0.121,0.01,0.241,0.017,0.361c0.019,0.319,0.029,0.597,0.131,0.882
			c0.002,0.143,0.005,0.288,0.039,0.424c0.037,0.15,0.112,0.29,0.173,0.433c0.088,0.206,0.388,0.246,0.561,0.147
			c0.284-0.162,0.462-0.368,0.631-0.621c0.258-0.224,0.402-0.48,0.55-0.818c0.169-0.387,0.241-0.75,0.285-1.169
			C449.352,354.455,449.37,353.813,449.274,353.164z"/>
		<path style="fill:#658372;" d="M443.201,367.024c-0.076-0.441-0.13-0.909-0.27-1.334c-0.15-0.458-0.285-0.948-0.49-1.385
			c-0.194-0.413-0.435-0.809-0.653-1.21c-0.135-0.248-0.593-0.22-0.643,0.084c-0.077,0.477-0.181,0.958-0.227,1.439
			c-0.044,0.456-0.019,0.939-0.006,1.397c0.014,0.509,0.116,1.078,0.222,1.579c0.107,0.503,0.53,1.044,0.951,1.324
			c0.265,0.176,0.578,0.029,0.746-0.196c0.151-0.201,0.222-0.418,0.293-0.657c0.027-0.09,0.06-0.181,0.082-0.273
			C443.27,367.524,443.248,367.292,443.201,367.024z"/>
		<path style="fill:#658372;" d="M453.893,374.314c-0.004-0.264,0.004-0.542-0.062-0.799c-0.046-0.179-0.126-0.356-0.188-0.531
			c-0.027-0.076-0.055-0.151-0.085-0.226c-0.074-0.185-0.171-0.316-0.291-0.47c-0.079-0.101-0.158-0.202-0.238-0.304
			c-0.116-0.148-0.347-0.105-0.47,0c-0.117,0.101-0.235,0.203-0.352,0.304c-0.172,0.149-0.284,0.335-0.398,0.529
			c-0.079,0.134-0.165,0.265-0.238,0.403c-0.134,0.254-0.181,0.515-0.239,0.79c-0.095,0.454-0.21,0.909-0.242,1.373
			c-0.014,0.197-0.028,0.4-0.029,0.598c-0.002,0.38,0.113,0.702,0.316,1.022c0.393,0.62,1.312,0.809,1.849,0.238
			c0.247-0.263,0.458-0.535,0.532-0.895c0.04-0.193,0.057-0.396,0.084-0.591C453.912,375.268,453.901,374.804,453.893,374.314z"/>
		<path style="fill:#94B6A3;" d="M424.026,316.178c-0.05-0.204-0.1-0.407-0.15-0.611c-0.076-0.309-0.199-0.592-0.324-0.884
			c-0.079-0.185-0.155-0.371-0.238-0.554c-0.071-0.158-0.162-0.299-0.287-0.423c-0.064-0.076-0.067-0.076-0.008,0.002
			c-0.034-0.046-0.069-0.092-0.103-0.138c-0.198-0.265-0.451-0.429-0.798-0.382c-0.299,0.04-0.598,0.265-0.666,0.573
			c-0.061,0.277-0.155,0.542-0.162,0.828c-0.005,0.204,0.009,0.411,0.013,0.615c0.012,0.536,0.111,1.048,0.211,1.573
			c0.039,0.204,0.064,0.418,0.118,0.619c0.077,0.286,0.257,0.586,0.408,0.844c0.211,0.36,0.77,0.826,1.24,0.763
			c0.506-0.068,0.844-0.833,0.883-1.251c0.021-0.229,0.052-0.474,0.038-0.703C424.183,316.754,424.096,316.465,424.026,316.178z"/>
		<path style="fill:#94B6A3;" d="M421.875,335.869c-0.313-0.995-0.698-2.125-1.6-2.737c-0.332-0.225-0.947-0.094-1.113,0.292
			c-0.097,0.226-0.165,0.448-0.214,0.687c-0.062,0.305-0.03,0.572,0.002,0.874c0.033,0.309,0.047,0.631,0.114,0.934
			c0.05,0.227,0.12,0.451,0.179,0.676c0.132,0.497,0.227,1.016,0.508,1.455c0.192,0.3,0.376,0.629,0.694,0.815
			c0.276,0.161,0.6,0.283,0.921,0.195c0.702-0.193,0.843-1.017,0.847-1.629C422.217,336.875,422.039,336.39,421.875,335.869z"/>
		<path style="fill:#94B6A3;" d="M428.558,344.217c-0.015-0.245-0.023-0.51-0.11-0.74c-0.089-0.233-0.186-0.466-0.296-0.69
			c-0.18-0.366-0.426-0.691-0.686-1.004c-0.227-0.272-0.727-0.319-1.018-0.131c-0.316,0.204-0.484,0.577-0.386,0.948
			c0.043,0.162,0.074,0.325,0.106,0.489c0.013,0.085,0.013,0.083,0.001-0.006c-0.019-0.147-0.012-0.091,0.021,0.151
			c0.003,0.027,0.006,0.055,0.009,0.082c0.014,0.143,0.022,0.287,0.023,0.431c0.002,0.183,0.031,0.362,0.06,0.541
			c0.016,0.134,0.031,0.268,0.036,0.403c0.003,0.084,0,0.169,0.004,0.253c0.012,0.271,0.073,0.422,0.183,0.667
			c0.004,0.009,0.006,0.012,0.009,0.02c0.026,0.072,0.052,0.143,0.078,0.215c0.061,0.168,0.123,0.278,0.237,0.416
			c0.028,0.034,0.057,0.068,0.084,0.103c0.098,0.125,0.348,0.192,0.495,0.131c0.197-0.083,0.385-0.148,0.526-0.32
			c0.13-0.159,0.256-0.324,0.372-0.493C428.591,345.261,428.588,344.71,428.558,344.217z"/>
		<path style="fill:#94B6A3;" d="M425.932,356.813c-0.14-0.453-0.277-0.909-0.552-1.299c-0.142-0.201-0.284-0.429-0.452-0.608
			c-0.123-0.132-0.273-0.202-0.432-0.263c-0.078-0.092-0.153-0.186-0.229-0.28c-0.155-0.191-0.466-0.027-0.467,0.193
			c0,0.11-0.004,0.219-0.009,0.328c-0.113,0.178-0.186,0.342-0.212,0.579c-0.02,0.184-0.033,0.369-0.055,0.552
			c-0.047,0.408,0.01,0.803,0.031,1.213c0.025,0.485,0.08,0.986,0.191,1.462c0.057,0.244,0.195,0.465,0.306,0.688
			c0.132,0.267,0.313,0.438,0.565,0.597c0.315,0.199,0.662,0.088,0.928-0.12c0.433-0.338,0.632-1.053,0.618-1.588
			C426.151,357.774,426.078,357.285,425.932,356.813z"/>
		<path style="fill:#94B6A3;" d="M433.272,368.755c-0.088-0.389-0.201-0.773-0.338-1.149c-0.184-0.507-0.371-1.017-0.733-1.424
			c-0.118-0.133-0.248-0.256-0.356-0.394c-0.163-0.207-0.313-0.424-0.478-0.629c-0.333-0.413-1.123,0.034-0.914,0.532
			c0.145,0.347,0.274,0.644,0.299,1.004c0.032,0.451,0.151,0.863,0.244,1.302c0.041,0.193,0.072,0.387,0.104,0.582
			c0.004,0.033,0.008,0.067,0.011,0.1c0.011,0.106,0.021,0.212,0.029,0.319c0.019,0.267,0.066,0.525,0.115,0.787
			c0.035,0.191,0.044,0.397,0.107,0.579c0.078,0.226,0.222,0.403,0.36,0.594c0.146,0.203,0.318,0.407,0.593,0.407
			c0.44,0,0.841-0.627,0.964-1.001C433.431,369.907,433.376,369.212,433.272,368.755z"/>
		<path style="fill:#94B6A3;" d="M432.488,380.389c-0.027-0.199-0.083-0.384-0.138-0.577c-0.111-0.393-0.254-0.759-0.435-1.126
			c-0.066-0.134-0.129-0.27-0.198-0.402c-0.1-0.191-0.245-0.351-0.389-0.51c-0.127-0.14-0.245-0.283-0.404-0.388
			c-0.059-0.039-0.246-0.136-0.375-0.153c-0.216-0.106-0.493-0.058-0.618,0.166c-0.012,0.022-0.02,0.047-0.031,0.07
			c-0.008,0.006-0.015,0.012-0.023,0.018c-0.106,0.097-0.202,0.282-0.24,0.423c-0.033,0.123-0.036,0.261-0.053,0.388
			c-0.019,0.136-0.058,0.308-0.059,0.431c0,0.153,0.031,0.307,0.052,0.458c0.021,0.153,0.042,0.306,0.064,0.46
			c0.021,0.152,0.034,0.308,0.074,0.456c0.04,0.147,0.096,0.292,0.144,0.437c0.058,0.175,0.113,0.349,0.185,0.519
			c0.083,0.197,0.193,0.353,0.313,0.527c0.285,0.409,0.796,0.697,1.308,0.532c0.491-0.159,0.843-0.59,0.85-1.116
			C432.516,380.793,432.515,380.597,432.488,380.389z"/>
		<path style="fill:#94B6A3;" d="M475.513,290.808c-0.105-0.337-0.353-0.606-0.591-0.86c-0.194-0.208-0.482-0.284-0.755-0.247
			c-0.288,0.039-0.466,0.188-0.636,0.409c0.007-0.01,0-0.002-0.012,0.012c-0.002,0.003-0.006,0.005-0.008,0.008
			c-0.005,0.007-0.002,0.002-0.005,0.008c-0.009,0.011-0.007,0.007-0.024,0.028c-0.168,0.203-0.324,0.38-0.397,0.643
			c-0.056,0.2-0.081,0.41-0.13,0.613c-0.043,0.18-0.102,0.356-0.137,0.538c-0.04,0.21-0.072,0.42-0.121,0.629
			c-0.049,0.208-0.118,0.41-0.17,0.617c-0.069,0.275-0.053,0.546-0.061,0.824c-0.008,0.267,0.045,0.51,0.123,0.76
			c0.072,0.232,0.119,0.272,0.181,0.487c0.061,0.211,0.271,0.318,0.481,0.273c0.074-0.016,0.148-0.035,0.222-0.051
			c-0.164,0.036,0.158-0.019,0.165-0.021c0.073-0.017,0.145-0.053,0.213-0.082c0.276-0.117,0.518-0.225,0.727-0.454
			c0.274-0.301,0.517-0.603,0.662-0.989c0.079-0.212,0.141-0.432,0.197-0.651c0.136-0.527,0.212-1.053,0.181-1.599
			C475.601,291.415,475.598,291.079,475.513,290.808z"/>
		<path style="fill:#94B6A3;" d="M470.124,304.506c-0.027-0.26-0.073-0.449-0.189-0.684c-0.07-0.14-0.18-0.287-0.209-0.439
			c-0.033-0.17-0.277-0.184-0.357-0.047c-0.077,0.131-0.217,0.215-0.326,0.32c-0.145,0.14-0.266,0.275-0.355,0.46
			c-0.074,0.153-0.151,0.306-0.219,0.461c-0.093,0.211-0.126,0.414-0.165,0.64c-0.068,0.398-0.168,0.796-0.13,1.2
			c0.025,0.26,0.034,0.513,0.154,0.751c0.063,0.124,0.134,0.243,0.201,0.364c0.128,0.231,0.431,0.241,0.614,0.079
			c0.11-0.098,0.229-0.191,0.332-0.295c0.153-0.155,0.225-0.343,0.315-0.536c0.089-0.19,0.163-0.372,0.199-0.578l0.092-0.535
			c0.037-0.214,0.105-0.451,0.095-0.665C470.169,304.838,470.141,304.671,470.124,304.506z"/>
		<path style="fill:#94B6A3;" d="M477.954,314.98c-0.028-0.286-0.066-0.46-0.187-0.717c-0.035-0.074-0.073-0.146-0.109-0.22
			c-0.146-0.293-0.43-0.702-0.817-0.624c-0.193,0.039-0.37,0.103-0.514,0.247c-0.099,0.099-0.187,0.216-0.277,0.324
			c-0.178,0.212-0.275,0.347-0.373,0.606c-0.036,0.095-0.068,0.192-0.101,0.288c-0.059,0.167-0.126,0.334-0.168,0.507
			c-0.068,0.281-0.067,0.598-0.09,0.887c-0.006,0.075-0.017,0.153-0.018,0.229c-0.006,0.293,0.085,0.518,0.205,0.777
			c0.195,0.418,0.618,0.937,1.152,0.794c0.217-0.058,0.427-0.157,0.591-0.312c0.236-0.222,0.477-0.542,0.565-0.843
			c0.05-0.17,0.071-0.35,0.1-0.525c0.05-0.293,0.115-0.585,0.088-0.883C477.986,315.336,477.971,315.158,477.954,314.98z"/>
		<path style="fill:#94B6A3;" d="M474.894,330.398c-0.034-0.268-0.049-0.554-0.106-0.818c-0.053-0.245-0.18-0.474-0.3-0.693
			c-0.149-0.271-0.492-0.271-0.706-0.091c-0.207,0.175-0.404,0.345-0.543,0.582c-0.112,0.19-0.211,0.388-0.316,0.582
			c-0.258,0.475-0.363,0.979-0.496,1.498c-0.146,0.572-0.26,1.114-0.231,1.708c0.022,0.449,0.36,1.369,0.908,1.444
			c0.312,0.042,0.527-0.165,0.753-0.345c0.285-0.226,0.455-0.448,0.595-0.793c0.087-0.216,0.187-0.435,0.241-0.661
			c0.075-0.311,0.084-0.66,0.122-0.978c0.03-0.247,0.059-0.494,0.089-0.741C474.934,330.846,474.925,330.643,474.894,330.398z"/>
		<path style="fill:#94B6A3;" d="M478.388,342.211c-0.063-0.312-0.215-0.556-0.462-0.749c-0.18-0.141-0.364-0.311-0.612-0.264
			c-0.06,0.008-0.117,0.028-0.17,0.061c-0.037,0.028-0.047,0.036-0.065,0.05c-0.038,0.028-0.075,0.055-0.113,0.082
			c-0.165,0.118-0.303,0.216-0.414,0.393c-0.083,0.133-0.13,0.283-0.187,0.428c-0.017,0.045-0.035,0.089-0.053,0.133
			c0.008-0.019,0.008-0.018,0.014-0.033c-0.067,0.141-0.136,0.283-0.173,0.434c-0.045,0.187-0.081,0.375-0.132,0.561
			c-0.052,0.186-0.111,0.369-0.177,0.55c-0.098,0.267-0.11,0.52-0.09,0.799c0.017,0.225-0.003,0.47,0.062,0.686
			c0.101,0.239,0.115,0.272,0.041,0.099c0.009,0.034,0.017,0.067,0.026,0.101c0.016,0.066,0.03,0.132,0.044,0.198
			c0.048,0.235,0.332,0.379,0.553,0.314c0.073-0.022,0.151-0.039,0.22-0.07c0.052-0.023,0.117-0.009,0.005-0.02
			c-0.104,0.008-0.088,0.005,0.048-0.011c0.077,0,0.149-0.02,0.215-0.058c0.253-0.107,0.472-0.307,0.68-0.488
			c0.285-0.248,0.45-0.538,0.56-0.899c0.063-0.207,0.117-0.417,0.162-0.629c0.057-0.273,0.13-0.576,0.134-0.852
			C478.507,342.762,478.441,342.474,478.388,342.211z"/>
		<path style="fill:#94B6A3;" d="M471.941,357.9c-0.096-0.158-0.219-0.3-0.337-0.442c-0.176-0.21-0.356-0.313-0.639-0.345
			c0.094,0.025,0.188,0.051,0.282,0.076c-0.067-0.05-0.135-0.097-0.205-0.144c-0.135-0.09-0.32-0.023-0.401,0.105
			c-0.031,0.05-0.064,0.098-0.097,0.148c-0.25,0.217-0.443,0.654-0.524,0.92c-0.042,0.14-0.094,0.278-0.133,0.419
			c-0.052,0.19-0.063,0.398-0.08,0.601c-0.047,0.272-0.113,0.539-0.169,0.81c-0.084,0.412-0.079,0.911,0.038,1.314
			c0.098,0.337,0.318,0.639,0.62,0.726c0.47,0.136,0.98-0.166,1.262-0.531c0.27-0.35,0.471-0.7,0.55-1.143
			c0.07-0.393,0.122-0.793,0.141-1.193C472.267,358.806,472.164,358.266,471.941,357.9z"/>
		<path style="fill:#94B6A3;" d="M471.61,372.652c-0.023-0.294-0.031-0.583-0.191-0.84c-0.091-0.146-0.192-0.288-0.29-0.43
			c-0.116-0.168-0.305-0.182-0.46-0.059c-0.111,0.087-0.224,0.166-0.34,0.247c-0.239,0.166-0.359,0.396-0.503,0.64
			c-0.096,0.163-0.206,0.32-0.296,0.486c-0.131,0.244-0.201,0.531-0.297,0.791c-0.035,0.093-0.07,0.185-0.106,0.278
			c-0.027,0.069-0.199,0.4-0.041,0.106c-0.092,0.171-0.162,0.36-0.241,0.537c-0.114,0.257-0.176,0.512-0.236,0.784
			c-0.057,0.258-0.081,0.48-0.002,0.739c0.04,0.143,0.113,0.267,0.205,0.381c0,0.004-0.003,0.003,0.012,0.029
			c0.158,0.318,0.548,0.417,0.868,0.353c0.093-0.02,0.074-0.013-0.057,0.019c0.192-0.001,0.371-0.049,0.537-0.145
			c0.233-0.125,0.364-0.288,0.514-0.5c0.162-0.229,0.303-0.449,0.406-0.712c0.158-0.405,0.274-0.831,0.382-1.251
			c0.069-0.269,0.159-0.559,0.168-0.837C471.649,373.064,471.626,372.855,471.61,372.652z"/>
		<path style="fill:#F4DA97;" d="M419.484,396.699c-0.064,0-0.065,0.1,0,0.1C419.548,396.798,419.548,396.699,419.484,396.699z"/>
		<g>
			<path style="fill:#F4DA97;" d="M421.921,394.505c6.208,0.006,12.415,0.013,18.623,0.014l6.727,0.001
				c6.614,0.015,13.228,0.011,19.841,0.009c2.422,0,4.845-0.001,7.267-0.001l0.223-1.988c-10.444-0.013-20.89-0.04-31.334,0.016
				c-1.28,0.001-2.56,0.001-3.84,0.003c-3.372,0.001-6.744,0.001-10.116,0.004c-2.536,0.002-5.073,0.004-7.609,0.007
				L421.921,394.505z"/>
			<path style="fill:#F4DA97;" d="M443.268,439.335c-1.28,0.001-2.56,0.001-3.84,0.003c-3.372,0.001-6.744,0.001-10.116,0.004
				c-0.784,0.001-1.568,0.001-2.352,0.002l0.218,1.942c4.455,0.004,8.91,0.009,13.365,0.01l6.727,0.001
				c6.614,0.015,13.228,0.011,19.841,0.009c0.67,0,1.34,0,2.009,0l0.224-1.994C460.653,439.3,451.961,439.288,443.268,439.335z"/>
			<path style="fill:#F4DA97;" d="M443.268,423.742c-1.28,0.001-2.56,0.001-3.84,0.003c-3.372,0.001-6.744,0.001-10.116,0.004
				c-1.368,0.001-2.736,0.002-4.104,0.003l0.218,1.939c5.039,0.005,10.079,0.01,15.118,0.012l6.727,0.001
				c6.614,0.015,13.228,0.011,19.841,0.009c1.254,0,2.508,0,3.762-0.001l0.224-1.992
				C461.822,423.709,452.545,423.693,443.268,423.742z"/>
			<path style="fill:#A1652B;" d="M443.268,431.539c-1.28,0.001-2.56,0.001-3.84,0.003c-3.372,0.001-6.744,0.001-10.116,0.004
				c-1.076,0.001-2.152,0.002-3.228,0.003l0.218,1.941c4.747,0.004,9.494,0.01,14.241,0.011l6.727,0.001
				c6.614,0.015,13.228,0.011,19.841,0.01c0.962,0,1.924-0.001,2.886-0.001l0.224-1.993
				C461.237,431.505,452.253,431.49,443.268,431.539z"/>
			<path style="fill:#A1652B;" d="M443.268,415.946c-1.28,0.001-2.56,0.001-3.84,0.003c-3.372,0.001-6.744,0.001-10.116,0.004
				c-1.66,0.001-3.32,0.003-4.981,0.004l0.218,1.938c5.331,0.005,10.663,0.011,15.994,0.012l6.727,0.001
				c6.614,0.016,13.228,0.011,19.841,0.01c1.546,0,3.092-0.001,4.638-0.001l0.224-1.991
				C462.406,415.914,452.837,415.895,443.268,415.946z"/>
			<path style="fill:#F4DA97;" d="M447.271,410.113c6.614,0.015,13.228,0.011,19.841,0.01c1.838-0.001,3.676-0.001,5.515-0.001
				l0.224-1.99c-9.86-0.014-19.722-0.035-29.582,0.018c-1.28,0.001-2.56,0.001-3.84,0.003c-3.372,0.001-6.744,0.001-10.116,0.004
				c-1.952,0.002-3.905,0.004-5.857,0.005l0.218,1.936c5.624,0.005,11.247,0.012,16.871,0.013L447.271,410.113z"/>
			<path style="fill:#A1652B;" d="M443.268,400.354c-1.28,0.001-2.56,0.001-3.84,0.003c-3.372,0.001-6.744,0.001-10.116,0.004
				c-2.244,0.002-4.489,0.004-6.733,0.006l0.217,1.935c5.916,0.006,11.831,0.012,17.747,0.014l6.727,0.001
				c6.614,0.015,13.228,0.011,19.841,0.009c2.13,0,4.261-0.001,6.391-0.001l0.224-1.989
				C463.574,400.323,453.421,400.299,443.268,400.354z"/>
		</g>
	</g>
	<g>
		<path style="fill:#658372;" id="leaves" d="M41.72,400.71c-20.383,4.304-20.939-19.904-17.403-31.16c3.535-11.256,2.086-10.531-3.417-22.595
			c-5.503-12.064-4.608-13.471-2.693-24.77c1.915-11.298-5.125-30.268,3.955-34.705c9.08-4.436,11.431,18.798,15.953,28.262
			c4.522,9.463,15.568,24.723,9.474,35.341C41.496,361.701,77.104,393.24,41.72,400.71z"/>
		<path style="fill:#658372;" d="M51.823,403.612c-20.195-5.114-10.031-27.092-1.9-35.64c8.132-8.548,6.511-8.536,6.884-21.79
			c0.373-13.254,1.796-14.124,8.492-23.423c6.696-9.3,8.731-29.431,18.837-29.415c10.106,0.016,1.983,21.911,1.874,32.399
			s3.087,29.053-7.06,35.901C68.803,368.491,86.88,412.49,51.823,403.612z"/>
		<path style="fill:#94B6A3;" id="leaves" d="M48.248,397.207c-24.304-0.264-18.802-27.975-11.924-39.898
			c6.879-11.924,5.045-11.465,1.834-26.599c-3.21-15.134-1.834-16.509,3.21-28.892s1.834-35.771,13.299-38.522
			c11.465-2.752,8.255,24.306,11.006,36.229c2.752,11.924,11.465,32.102,1.834,42.65C57.879,352.723,90.439,397.666,48.248,397.207z
			"/>
		<polygon style="fill:#E1A265;" points="76.316,385.251 21.774,385.251 31.066,467.915 67.024,467.915 		"/>
		<g>
			<path style="fill:#A1652B;" d="M69.506,434.82c-2.118,0.342-3.88,1.701-5.571,2.927c-1.528,1.108-3.306,2.46-5.31,2.252
				c-1.965-0.205-3.521-1.783-4.968-2.976c-1.621-1.337-3.4-2.596-5.583-2.643c-2.236-0.048-4.214,1.208-6.034,2.354
				c-1.591,1.002-3.449,2.28-5.434,1.938c-2.257-0.389-3.929-2.38-5.928-3.361c-1.101-0.54-2.231-0.737-3.354-0.694l0.186,1.658
				c0.2,0.008,0.399,0.001,0.601,0.032c2.332,0.356,3.976,2.347,5.96,3.446c2.103,1.165,4.283,1.1,6.431,0.112
				c1.917-0.882,3.546-2.335,5.517-3.102c0.87-0.338,1.806-0.534,2.734-0.34c0.965,0.202,1.819,0.71,2.606,1.288
				c1.675,1.23,3.119,2.838,5.047,3.691c2.041,0.903,4.133,0.673,6.084-0.343c1.904-0.992,3.469-2.513,5.35-3.544
				c0.885-0.485,1.789-0.74,2.687-0.754l0.227-2.017C70.345,434.731,69.929,434.752,69.506,434.82z"/>
			<path style="fill:#F4DA97;" d="M69.506,404.478c-2.118,0.342-3.88,1.701-5.571,2.927c-1.528,1.108-3.306,2.46-5.31,2.252
				c-1.965-0.205-3.521-1.783-4.968-2.976c-1.621-1.336-3.4-2.596-5.583-2.643c-2.236-0.048-4.214,1.208-6.034,2.354
				c-1.591,1.002-3.449,2.28-5.434,1.938c-2.257-0.389-3.929-2.381-5.928-3.361c-2.207-1.083-4.535-0.847-6.672,0.127l0.177,1.577
				c1.256-0.566,2.571-0.915,3.928-0.708c2.332,0.357,3.976,2.347,5.96,3.446c2.103,1.165,4.283,1.1,6.431,0.112
				c1.917-0.882,3.546-2.335,5.517-3.102c0.87-0.338,1.806-0.534,2.734-0.34c0.965,0.202,1.819,0.71,2.606,1.288
				c1.675,1.229,3.119,2.837,5.047,3.691c2.041,0.903,4.133,0.674,6.084-0.343c1.904-0.992,3.469-2.513,5.35-3.545
				c1.865-1.022,3.812-1.056,5.614,0.134c0.122,0.081,0.236,0.176,0.354,0.264l0.246-2.193
				C72.686,404.6,71.148,404.212,69.506,404.478z"/>
			<path style="fill:#A1652B;" d="M23.105,397.094c1.571-0.863,3.255-1.511,5.005-1.244c2.332,0.356,3.976,2.347,5.96,3.446
				c2.103,1.165,4.283,1.1,6.431,0.112c1.917-0.882,3.546-2.335,5.517-3.102c0.87-0.338,1.806-0.534,2.734-0.34
				c0.965,0.202,1.819,0.71,2.606,1.288c1.675,1.229,3.119,2.837,5.047,3.691c2.041,0.903,4.133,0.674,6.084-0.343
				c1.904-0.992,3.469-2.513,5.35-3.544c1.865-1.022,3.812-1.056,5.614,0.134c0.501,0.331,0.961,0.731,1.389,1.164l0.269-2.392
				c-1.608-1.234-3.525-1.936-5.605-1.601c-2.118,0.342-3.88,1.701-5.571,2.927c-1.528,1.108-3.306,2.461-5.31,2.252
				c-1.965-0.205-3.521-1.783-4.968-2.976c-1.621-1.336-3.4-2.596-5.583-2.643c-2.236-0.048-4.214,1.208-6.034,2.354
				c-1.591,1.002-3.449,2.28-5.434,1.938c-2.257-0.389-3.929-2.38-5.928-3.361c-2.549-1.251-5.26-0.747-7.652,0.629
				c-0.032,0.018-0.062,0.04-0.094,0.059L23.105,397.094z"/>
			<path style="fill:#A1652B;" d="M28.11,416.079c2.332,0.356,3.976,2.347,5.96,3.446c2.103,1.165,4.283,1.1,6.431,0.112
				c1.917-0.882,3.546-2.335,5.517-3.102c0.87-0.338,1.806-0.534,2.734-0.34c0.965,0.202,1.819,0.71,2.606,1.288
				c1.675,1.229,3.119,2.837,5.047,3.691c2.041,0.903,4.133,0.674,6.084-0.343c1.904-0.992,3.469-2.513,5.35-3.544
				c1.623-0.89,3.308-1.028,4.905-0.266l0.231-2.052c-1.081-0.415-2.247-0.574-3.469-0.377c-2.118,0.342-3.88,1.701-5.571,2.927
				c-1.528,1.108-3.306,2.46-5.31,2.252c-1.965-0.205-3.521-1.782-4.968-2.976c-1.621-1.336-3.4-2.596-5.583-2.643
				c-2.236-0.048-4.214,1.208-6.034,2.354c-1.591,1.002-3.449,2.28-5.434,1.938c-2.257-0.389-3.929-2.38-5.928-3.361
				c-1.837-0.901-3.757-0.882-5.582-0.291l0.177,1.579C26.193,416.077,27.141,415.931,28.11,416.079z"/>
			<path style="fill:#F4DA97;" d="M69.506,424.706c-2.118,0.342-3.88,1.701-5.571,2.927c-1.528,1.108-3.306,2.461-5.31,2.252
				c-1.965-0.205-3.521-1.783-4.968-2.976c-1.621-1.336-3.4-2.596-5.583-2.643c-2.236-0.048-4.214,1.208-6.034,2.354
				c-1.591,1.002-3.449,2.28-5.434,1.938c-2.257-0.389-3.929-2.38-5.928-3.361c-1.47-0.721-2.992-0.845-4.477-0.569l0.18,1.597
				c0.569-0.089,1.145-0.122,1.73-0.032c2.332,0.357,3.976,2.347,5.96,3.446c2.103,1.165,4.283,1.1,6.431,0.112
				c1.917-0.882,3.546-2.335,5.517-3.102c0.87-0.338,1.806-0.534,2.734-0.34c0.965,0.202,1.819,0.71,2.606,1.288
				c1.675,1.229,3.119,2.837,5.047,3.691c2.041,0.903,4.133,0.674,6.084-0.343c1.904-0.992,3.469-2.513,5.35-3.544
				c1.256-0.689,2.549-0.916,3.81-0.635l0.225-2.003C71.116,424.604,70.324,424.574,69.506,424.706z"/>
		</g>
		<path style="fill:#658372;" d="M58.979,334.924c1.11-1.102,2.15-2.263,3.136-3.477c0.997-1.229,2.122-2.474,2.561-4.022
			c0.106-0.374-0.132-0.688-0.466-0.82c-0.155-0.062-0.348-0.274-0.475-0.384c-0.121-0.104-0.351-0.044-0.34,0.141
			c0.011,0.188,0.028,0.376,0.008,0.562c-0.391,0.329-0.745,0.67-1.073,1.087c-0.387,0.491-0.746,1.002-1.132,1.494
			c-0.814,1.04-1.678,2.035-2.554,3.023c-0.851,0.961-1.737,1.896-2.628,2.82c-0.433,0.449-0.86,0.905-1.294,1.354
			c-0.174,0.179-0.346,0.361-0.517,0.543c-0.038-1.024-0.06-2.048-0.04-3.074c0.068-3.476,0.655-6.891,1.216-10.313
			c0.864-5.272,1.405-10.573,1.621-15.899c0.135-0.113,0.268-0.23,0.398-0.346c0.382-0.345,0.761-0.704,1.109-1.084
			c0.719-0.786,1.388-1.619,2.03-2.468c0.806-1.065,2.375-3.402,0.43-4.241c-0.143-0.062-0.324,0.072-0.23,0.23
			c0.299,0.501-0.055,1.238-0.273,1.721c-0.333,0.739-0.888,1.397-1.376,2.038c-0.535,0.702-1.118,1.36-1.68,2.039
			c-0.123,0.149-0.248,0.295-0.373,0.442c0.032-1.141,0.073-2.281,0.074-3.425c0.005-3.946-0.213-7.893-0.57-11.822
			c-0.355-3.913-0.791-7.873-1.751-11.69c-0.059-0.235-0.445-0.192-0.43,0.058c0.217,3.557,0.647,7.101,0.883,10.658
			c0.171,2.584,0.239,5.168,0.266,7.754c-0.128-0.193-0.255-0.386-0.383-0.579c-0.367-0.554-0.72-1.115-1.048-1.693
			c-0.318-0.562-0.609-1.136-0.887-1.718c-0.273-0.573-0.614-1.152-1.103-1.564c-0.13-0.109-0.293-0.03-0.313,0.13
			c-0.164,1.305,0.71,2.633,1.339,3.716c0.333,0.574,0.685,1.139,1.067,1.682c0.194,0.276,0.405,0.542,0.614,0.807
			c0.215,0.272,0.47,0.466,0.729,0.687c0.001,0.419,0.015,0.837,0.013,1.256c-0.03,6.05-0.466,12.09-1.297,18.081
			c-0.001-0.001-0.002-0.002-0.003-0.003c-0.311-0.368-0.59-0.755-0.865-1.15c-0.642-0.922-1.293-1.836-1.908-2.776
			c-0.598-0.915-1.168-1.848-1.707-2.799c-0.273-0.483-0.549-0.966-0.894-1.402c-0.351-0.444-0.782-0.816-1.157-1.24
			c-0.111-0.126-0.289,0.011-0.261,0.152c0.113,0.567,0.16,1.163,0.347,1.712c0.189,0.556,0.478,1.077,0.774,1.583
			c0.615,1.051,1.267,2.081,1.955,3.086c0.662,0.967,1.363,1.917,2.128,2.806c0.309,0.36,0.64,0.718,1.059,0.953
			c0.116,0.065,0.244,0.121,0.377,0.166c-0.096,0.65-0.171,1.303-0.277,1.952c-0.575,3.524-1.279,7.037-1.516,10.605
			c-0.226,3.399,0.001,6.805,0.279,10.194c0.254,3.085,0.54,6.174,0.582,9.271c-0.118-0.137-0.237-0.273-0.351-0.414
			c-0.468-0.58-0.928-1.159-1.343-1.779c-0.879-1.315-1.628-2.714-2.331-4.129c-0.713-1.436-1.409-2.883-2.16-4.3
			c-0.362-0.683-0.754-1.354-1.271-1.928c-0.502-0.557-1.033-1.193-1.712-1.538c-0.176-0.089-0.347,0.057-0.316,0.243
			c0.142,0.834,0.561,1.744,0.898,2.517c0.37,0.85,0.845,1.658,1.267,2.483c0.816,1.597,1.578,3.22,2.452,4.787
			c0.861,1.542,1.834,3.033,3.025,4.342c0.454,0.5,1.157,1.257,1.834,1.507c-0.083,3.145-0.561,6.195-1.449,9.226
			c-1.055,3.599-2.45,7.112-3.131,10.812c-0.246,1.335-0.415,2.691-0.45,4.049c-0.324-0.429-0.647-0.853-0.936-1.281
			c-0.915-1.358-1.745-2.776-2.502-4.228c-0.725-1.391-1.307-2.833-1.928-4.271c-0.295-0.684-0.614-1.331-1.093-1.907
			c-0.245-0.295-0.506-0.571-0.846-0.749c-0.29-0.151-0.604-0.184-0.89-0.333c-0.212-0.111-0.509,0.127-0.353,0.353
			c0.198,0.285,0.171,0.599,0.284,0.921c0.107,0.305,0.276,0.593,0.4,0.892c0.272,0.655,0.572,1.297,0.846,1.952
			c0.628,1.5,1.284,2.98,2.059,4.411c0.764,1.411,1.633,2.761,2.577,4.057c0.713,0.979,1.511,2.143,2.503,2.939
			c0.156,1.343,0.482,2.664,1.165,3.838c0.485,0.832,1.726,0.268,1.521-0.641c-0.351-1.551-0.749-3.077-0.815-4.675
			c-0.066-1.608,0.08-3.219,0.372-4.8c0.496-2.687,1.366-5.278,2.209-7.873c0.039-0.019,0.079-0.038,0.116-0.055
			c0.381-0.176,0.736-0.402,1.089-0.628c0.654-0.419,1.276-0.873,1.893-1.346c1.276-0.977,2.472-2.073,3.635-3.18
			c1.115-1.062,2.254-2.138,3.267-3.299c0.472-0.542,0.909-1.346,0.438-2.034c-0.385-0.563-0.924-0.651-1.5-0.376
			c-0.21,0.101-0.189,0.404-0.019,0.532c-0.012,0.022-0.024,0.044-0.035,0.067c-0.112,0.204-0.227,0.353-0.385,0.526
			c-0.439,0.48-0.895,0.945-1.351,1.409c-0.936,0.952-1.899,1.874-2.877,2.783c-0.952,0.885-1.924,1.749-2.881,2.628
			c-0.227,0.208-0.443,0.428-0.665,0.642c0.892-2.989,1.528-6.007,1.69-9.138c0.177-3.427-0.095-6.856-0.388-10.27
			c-0.167-1.941-0.334-3.886-0.444-5.832c0.427-0.156,0.85-0.514,1.138-0.72C56.677,337.025,57.875,336.02,58.979,334.924z"/>
		<path style="fill:#94B6A3;" id="leaves" d="M84.571,310.694c-0.087,0.001-0.194-0.042-0.301-0.032c-0.163,0.016-0.299,0.081-0.443,0.154
			c-0.287,0.145-0.559,0.31-0.837,0.472c-0.571,0.333-1.154,0.643-1.749,0.93c-0.551,0.265-1.105,0.525-1.669,0.763
			c0.524-1.299,1.107-2.576,1.724-3.831c0.888-1.806,2.073-3.595,2.591-5.55c0.052-0.198-0.199-0.351-0.346-0.202
			c-1.261,1.283-2.115,2.982-2.973,4.548c-0.851,1.553-1.648,3.132-2.332,4.766c-0.164,0.392-0.297,0.791-0.446,1.187
			c-0.006,0.004-0.013,0.007-0.019,0.011c-0.069,0.051-0.084,0.132-0.06,0.197c-0.979,2.665-1.623,5.408-1.895,8.239
			c-0.139-0.385-0.287-0.766-0.427-1.151c-0.338-0.927-0.634-1.868-0.887-2.821c-0.245-0.921-0.446-1.852-0.624-2.788
			c-0.188-0.992-0.509-1.864-0.833-2.812c-0.043-0.126-0.271-0.162-0.294,0c-0.085,0.617-0.214,1.238-0.193,1.864
			c0.022,0.657,0.171,1.326,0.303,1.967c0.274,1.332,0.648,2.646,1.093,3.93c0.223,0.642,0.458,1.284,0.728,1.908
			c0.199,0.461,0.448,1.169,0.847,1.495c0.044,0.036,0.101,0.073,0.163,0.105c-0.188,3.568-0.087,7.133-0.561,10.687
			c-0.474,3.553-1.32,7.026-2.5,10.409c-0.097,0.278-0.212,0.548-0.314,0.824c-0.088-0.281-0.194-0.558-0.3-0.847
			c-0.219-0.596-0.433-1.191-0.601-1.804c-0.314-1.149-0.387-2.44-0.976-3.495c-0.049-0.088-0.204-0.101-0.249,0
			c-0.521,1.166-0.2,2.558,0.127,3.734c0.318,1.144,0.726,2.544,1.638,3.362c-0.483,1.24-0.996,2.467-1.578,3.665
			c-0.448,0.921-0.923,1.83-1.424,2.722c-0.251,0.447-0.509,0.889-0.773,1.328c-0.113,0.188-0.236,0.372-0.343,0.562
			c-0.08,0.11-0.135,0.232-0.183,0.358c-0.215,0.152-0.379,0.406-0.347,0.663c0.046,0.379,0.22,0.637,0.585,0.768
			c0.898,0.323,1.476-0.513,1.875-1.169c0.181-0.298,0.344-0.608,0.519-0.91c0.609-0.302,1.202-0.643,1.768-0.941
			c1.307-0.689,2.584-1.419,3.84-2.197c1.218-0.755,2.449-1.52,3.594-2.383c0.643-0.485,1.732-1.678,0.763-2.385
			c-0.168-0.122-0.339,0.108-0.262,0.262c-0.085-0.171-1.239,0.372-1.355,0.439c-0.555,0.322-1.075,0.707-1.606,1.067
			c-1.035,0.699-2.071,1.397-3.115,2.084c-0.762,0.502-1.51,1.025-2.262,1.544c0.674-1.329,1.304-2.679,1.869-4.058
			c1.351-3.299,2.329-6.745,2.969-10.252c0.393-0.175,0.775-0.382,1.145-0.603c0.944-0.563,1.852-1.216,2.682-1.937
			c0.783-0.68,1.567-1.392,2.231-2.191c0.36-0.433,0.668-0.868,0.816-1.418c0.075-0.28,0.087-0.527,0.047-0.812
			c-0.039-0.275-0.18-0.446-0.264-0.7c-0.07-0.213-0.337-0.194-0.414,0c-0.061,0.154-0.327,0.348-0.446,0.467
			c-0.148,0.148-0.282,0.307-0.42,0.463c-0.31,0.352-0.603,0.716-0.929,1.054c-0.683,0.709-1.381,1.393-2.111,2.053
			c-0.675,0.61-1.359,1.208-2.058,1.791c0.454-3.25,0.571-6.503,0.57-9.796c-0.001-2.014-0.012-4.034,0.2-6.04
			c0.197-1.863,0.688-3.701,1.293-5.471c0.099-0.291,0.21-0.577,0.317-0.865c0.867-0.201,1.722-0.59,2.485-0.946
			c0.599-0.28,1.187-0.583,1.761-0.909c0.28-0.159,0.558-0.317,0.816-0.509c0.143-0.107,0.294-0.204,0.401-0.349
			c0.089-0.121,0.083-0.234,0.138-0.357C84.81,310.868,84.742,310.693,84.571,310.694z"/>
		<path style="fill:#94B6A3;" d="M33.388,345.604c0.245-0.328,0.452-0.681,0.661-1.033c0.48-0.811,0.959-1.622,1.439-2.433
			c0.943-1.595,1.844-3.217,2.761-4.828c0.335-0.776-0.734-1.464-1.167-0.682c-0.022,0.039-0.044,0.079-0.066,0.118
			c-0.016-0.004-0.073,0.069-0.118,0.133c-0.178-0.049-0.389,0.096-0.321,0.297c0.025,0.075,0.058,0.134,0.095,0.189
			c-0.765,1.375-1.536,2.747-2.276,4.135c-0.429,0.805-0.858,1.611-1.286,2.416c-0.15,0.282-0.297,0.567-0.434,0.856
			c-1.074-3.929-1.574-8.04-1.829-12.087c-0.147-2.332-0.218-4.667-0.283-7.002c0.007-0.005,0.014-0.007,0.021-0.013
			c1.077-0.931,1.844-2.25,2.514-3.492c0.332-0.615,0.636-1.245,0.911-1.887c0.144-0.337,0.284-0.68,0.352-1.042
			c0.069-0.366-0.017-0.731-0.034-1.098c-0.005-0.104-0.149-0.189-0.227-0.094c-0.182,0.225-0.411,0.408-0.585,0.636
			c-0.202,0.266-0.337,0.584-0.468,0.889c-0.286,0.662-0.582,1.317-0.917,1.956c-0.483,0.917-1.072,1.773-1.608,2.657
			c-0.13-4.754-0.286-9.503-1.033-14.218c-0.068-0.43-0.143-0.859-0.221-1.289c0.014,0.048,0.079,0.076,0.108,0.023
			c0.027-0.049,0.157-0.039,0.202-0.055c0.06-0.023,0.106-0.05,0.155-0.091c0.095-0.076,0.177-0.181,0.252-0.275
			c0.167-0.209,0.29-0.465,0.405-0.705c0.237-0.492,0.465-0.989,0.698-1.483c0.216-0.459,0.495-0.929,0.552-1.441
			c0.051-0.454-0.093-0.896-0.458-1.174c-0.061-0.046-0.171,0.001-0.184,0.075c-0.07,0.406-0.298,0.765-0.456,1.142
			c-0.172,0.411-0.36,0.815-0.542,1.221c-0.201,0.449-0.418,0.894-0.603,1.35c-0.084,0.208-0.184,0.429-0.224,0.651
			c-0.007,0.043-0.016,0.092-0.024,0.141c-0.674-3.515-1.7-7.001-3.433-10.132c-0.111-0.199-0.468-0.063-0.378,0.159
			c1.421,3.537,2.42,7.19,2.945,10.968c0.254,1.824,0.409,3.66,0.512,5.499c-0.07-0.057-0.141-0.115-0.211-0.173
			c-0.525-0.434-1.037-0.884-1.535-1.347c-0.486-0.452-0.956-0.921-1.423-1.393c-0.253-0.255-0.517-0.491-0.815-0.693
			c-0.275-0.187-0.582-0.321-0.858-0.507c-0.151-0.102-0.297,0.091-0.23,0.23c0.15,0.31,0.252,0.643,0.421,0.944
			c0.177,0.315,0.406,0.593,0.654,0.854c0.469,0.494,0.962,0.965,1.466,1.423c0.504,0.458,1.021,0.902,1.552,1.331
			c0.328,0.265,0.675,0.536,1.043,0.764c0.064,1.551,0.103,3.102,0.121,4.651c0.05,4.264,0.015,8.572,0.259,12.852
			c-0.68-0.649-1.452-1.223-2.157-1.792c-0.659-0.531-1.321-1.06-1.999-1.568c-0.707-0.529-1.465-0.871-2.312-1.107
			c-0.141-0.039-0.286,0.128-0.198,0.258c0.262,0.391,0.537,0.785,0.858,1.13c0.366,0.394,0.805,0.717,1.23,1.043
			c0.825,0.634,1.634,1.289,2.444,1.943c0.73,0.589,1.441,1.263,2.244,1.759c0.199,2.607,0.516,5.201,1.055,7.762
			c0.676,3.212,1.714,6.356,3.203,9.28c-1.181-0.457-2.365-0.91-3.548-1.363c-0.927-0.355-1.853-0.711-2.781-1.062
			c-0.463-0.175-0.925-0.36-1.394-0.52c-0.573-0.195-0.953-0.176-1.534-0.047c-0.295,0.066-0.484,0.478-0.299,0.735
			c0.305,0.424,0.529,0.713,1.018,0.927c0.489,0.215,0.988,0.403,1.486,0.596c0.964,0.373,1.93,0.742,2.896,1.111
			c1.969,0.752,3.934,1.517,5.916,2.235c0.745,0.27,1.41-0.682,1.014-1.319c-1.465-2.362-2.549-4.895-3.356-7.521
			C33.149,345.888,33.261,345.775,33.388,345.604z"/>
	</g>
	<g>
		<!-- <path style="fill:#8DC4CF;" d="M156.363,245.564h18.052c2.131,0,3.101-2.66,1.47-4.031l-19.522-16.423V245.564z"/> -->
		<!-- <path style="fill:#8DC4CF;" d="M155.91,245.564H35.981c-4.242,0-7.682-3.439-7.682-7.682V47.72c0-4.242,3.439-7.682,7.682-7.682
			H155.91c4.242,0,7.681,3.439,7.681,7.682v190.163C163.591,242.125,160.152,245.564,155.91,245.564z"/> -->
		<!-- <path style="fill:#FFFFFF;" d="M155.651,240.717H36.24c-2.026,0-3.669-1.643-3.669-3.669V53.811c0-2.026,1.643-3.669,3.669-3.669
			h119.411c2.026,0,3.669,1.643,3.669,3.669v183.238C159.32,239.075,157.677,240.717,155.651,240.717z"/> -->
		<!-- <path style="fill:#D06A6C;" d="M155.651,68.214H36.24c-2.026,0-3.669-1.643-3.669-3.669V53.811c0-2.026,1.643-3.669,3.669-3.669
			h119.411c2.026,0,3.669,1.643,3.669,3.669v10.734C159.32,66.571,157.677,68.214,155.651,68.214z"/> -->
		<!-- <g>
			<text transform="matrix(1 0 0 1 35.4458 63.5695)" style="fill:#FFFFFF; font-family:'Quicksand-Bold'; font-size:12.3179px;">LIVE CHAT</text>
		</g> -->
		<g>
			<path style="fill:#FFFFFF;" d="M156.356,63.754c-0.068-0.243-0.191-0.453-0.368-0.632c-0.097-0.075-0.193-0.149-0.29-0.224
				c-0.223-0.129-0.464-0.194-0.723-0.195c-0.197-0.007-0.381,0.034-0.552,0.123c-0.178,0.058-0.331,0.156-0.461,0.296
				c-0.14,0.13-0.238,0.283-0.296,0.461c-0.09,0.171-0.131,0.355-0.123,0.552c0.017,0.127,0.034,0.254,0.051,0.381
				c0.068,0.242,0.191,0.453,0.368,0.632c0.097,0.074,0.193,0.149,0.29,0.224c0.223,0.129,0.464,0.195,0.723,0.196
				c0.197,0.007,0.381-0.034,0.552-0.124c0.177-0.058,0.331-0.156,0.461-0.296c0.14-0.13,0.238-0.283,0.296-0.461
				c0.09-0.171,0.131-0.354,0.123-0.551C156.39,64.008,156.373,63.881,156.356,63.754z"/>
			<path style="fill:#FFFFFF;" d="M156.356,58.706c-0.068-0.243-0.191-0.453-0.368-0.632c-0.097-0.075-0.193-0.149-0.29-0.224
				c-0.223-0.129-0.464-0.194-0.723-0.195c-0.197-0.007-0.381,0.034-0.552,0.123c-0.178,0.058-0.331,0.156-0.461,0.296
				c-0.14,0.13-0.238,0.283-0.296,0.461c-0.09,0.171-0.131,0.355-0.123,0.552c0.017,0.127,0.034,0.254,0.051,0.381
				c0.068,0.243,0.191,0.453,0.368,0.632c0.097,0.074,0.193,0.149,0.29,0.224c0.223,0.13,0.464,0.195,0.723,0.196
				c0.197,0.007,0.381-0.034,0.552-0.124c0.177-0.058,0.331-0.156,0.461-0.296c0.14-0.13,0.238-0.283,0.296-0.461
				c0.09-0.171,0.131-0.355,0.123-0.552C156.39,58.96,156.373,58.833,156.356,58.706z"/>
			<path style="fill:#FFFFFF;" d="M156.356,53.658c-0.068-0.242-0.191-0.453-0.368-0.632c-0.097-0.075-0.193-0.149-0.29-0.224
				c-0.223-0.129-0.464-0.194-0.723-0.195c-0.197-0.007-0.381,0.034-0.552,0.123c-0.178,0.058-0.331,0.156-0.461,0.296
				c-0.14,0.13-0.238,0.283-0.296,0.461c-0.09,0.171-0.131,0.355-0.123,0.552c0.017,0.127,0.034,0.254,0.051,0.381
				c0.068,0.243,0.191,0.453,0.368,0.632c0.097,0.075,0.193,0.149,0.29,0.224c0.223,0.13,0.464,0.195,0.723,0.196
				c0.197,0.007,0.381-0.034,0.552-0.124c0.177-0.058,0.331-0.156,0.461-0.296c0.14-0.13,0.238-0.283,0.296-0.461
				c0.09-0.171,0.131-0.355,0.123-0.552C156.39,53.912,156.373,53.785,156.356,53.658z"/>
		</g>
		<!-- <circle style="fill:#AAD4F4;" cx="43.66" cy="79.057" r="7.229"/> -->
		<!-- <path style="fill:#C5CED7;" d="M103.79,73.005c-8.365,0.011-16.73,0.023-25.095,0.034c-4.094,0.005-8.187,0.017-12.281,0.032
			c-2.136,0.008-4.272,0.016-6.407,0.024c-1.817,0.007-4.279-0.406-5.89,0.583c-0.706,0.433-0.706,1.452,0,1.885
			c1.621,0.995,4.062,0.576,5.89,0.584c2.047,0.008,4.093,0.015,6.14,0.023c4.183,0.016,8.365,0.028,12.548,0.033
			c8.365,0.011,16.73,0.023,25.095,0.034C105.87,76.24,105.874,73.002,103.79,73.005z"/> -->
			<!-- <path style="fill:#C5CED7;" d="M126.495,79.905c-12.148,0.011-24.297,0.023-36.445,0.034c-5.945,0.006-11.89,0.017-17.835,0.032
				c-3.102,0.008-6.203,0.016-9.305,0.024c-2.639,0.007-6.214-0.406-8.554,0.583c-1.025,0.433-1.025,1.452,0,1.885
				c2.354,0.995,5.898,0.576,8.554,0.583c2.973,0.008,5.945,0.016,8.917,0.023c6.074,0.016,12.148,0.028,18.222,0.033
				c12.148,0.011,24.296,0.023,36.445,0.034C129.515,83.14,129.52,79.902,126.495,79.905z"/> -->
		<!-- <circle style="fill:#F2DBDE;" cx="43.66" cy="104.439" r="7.229"/> -->
		<!-- <path style="fill:#C5CED7;" d="M88.095,98.387c-5.75,0.011-11.5,0.023-17.25,0.034c-2.814,0.006-5.628,0.017-8.441,0.032
			c-1.468,0.008-2.936,0.016-4.404,0.024c-1.249,0.007-2.941-0.406-4.049,0.583c-0.485,0.433-0.485,1.452,0,1.885
			c1.114,0.995,2.792,0.576,4.049,0.584c1.407,0.008,2.814,0.015,4.221,0.023c2.875,0.016,5.75,0.027,8.625,0.033
			c5.75,0.011,11.5,0.023,17.25,0.034C89.525,101.623,89.527,98.384,88.095,98.387z"/>
		<path style="fill:#C5CED7;" d="M147.208,105.287c-15.6,0.011-31.199,0.023-46.799,0.034c-7.634,0.006-15.268,0.017-22.902,0.032
			c-3.983,0.008-7.966,0.016-11.949,0.024c-3.389,0.007-7.979-0.406-10.985,0.583c-1.316,0.433-1.316,1.452,0,1.885
			c3.023,0.995,7.574,0.576,10.985,0.584c3.817,0.008,7.634,0.015,11.451,0.023c7.8,0.016,15.599,0.028,23.399,0.033
			c15.6,0.011,31.199,0.023,46.799,0.034C151.087,108.523,151.093,105.285,147.208,105.287z"/>
		<circle style="fill:#AAD4F4;" cx="43.66" cy="129.822" r="7.229"/> -->
		<!-- <path style="fill:#C5CED7;" d="M72.799,123.77c-3.201,0.011-6.402,0.023-9.604,0.034c-1.567,0.006-3.133,0.017-4.7,0.032
			c-0.817,0.008-1.635,0.016-2.452,0.024c-0.695,0.007-1.637-0.406-2.254,0.583c-0.27,0.433-0.27,1.452,0,1.885
			c0.62,0.995,1.554,0.576,2.254,0.584c0.783,0.008,1.567,0.015,2.35,0.023c1.601,0.016,3.201,0.027,4.802,0.033
			c3.201,0.011,6.402,0.023,9.604,0.034C73.595,127.006,73.597,123.767,72.799,123.77z"/>
		<path style="fill:#C5CED7;" d="M140.516,130.67c-14.485,0.011-28.969,0.023-43.454,0.034c-7.088,0.005-14.176,0.017-21.264,0.032
			c-3.698,0.008-7.396,0.016-11.095,0.024c-3.146,0.007-7.409-0.406-10.199,0.583c-1.222,0.433-1.222,1.452,0,1.885
			c2.807,0.995,7.033,0.576,10.199,0.583c3.544,0.008,7.088,0.016,10.632,0.023c7.242,0.016,14.484,0.028,21.727,0.033
			c14.485,0.011,28.969,0.023,43.454,0.034C144.118,133.906,144.124,130.667,140.516,130.67z"/>
		<path style="fill:#F2DBDE;" d="M50.889,155.205c0,3.992-3.236,7.229-7.229,7.229s-7.229-3.236-7.229-7.229
			c0-3.992,3.236-7.229,7.229-7.229S50.889,151.213,50.889,155.205z"/> -->
		<!-- <path style="fill:#C5CED7;" d="M97.496,149.153c-7.316,0.011-14.633,0.023-21.949,0.034c-3.58,0.006-7.161,0.017-10.741,0.032
			c-1.868,0.008-3.736,0.016-5.604,0.024c-1.589,0.007-3.742-0.406-5.152,0.583c-0.617,0.433-0.617,1.452,0,1.885
			c1.418,0.995,3.552,0.576,5.152,0.583c1.79,0.008,3.58,0.016,5.37,0.023c3.658,0.016,7.316,0.028,10.974,0.033
			c7.316,0.011,14.632,0.023,21.949,0.034C99.315,152.388,99.318,149.15,97.496,149.153z"/>
		<path style="fill:#C5CED7;" d="M115.341,156.053c-10.29,0.011-20.58,0.023-30.869,0.034c-5.035,0.005-10.071,0.017-15.106,0.032
			c-2.627,0.008-5.254,0.016-7.881,0.024c-2.235,0.007-5.263-0.406-7.246,0.583c-0.868,0.433-0.868,1.452,0,1.885
			c1.994,0.995,4.996,0.576,7.246,0.584c2.518,0.008,5.035,0.015,7.553,0.023c5.145,0.016,10.29,0.027,15.435,0.033
			c10.29,0.011,20.579,0.023,30.869,0.034C117.9,159.288,117.904,156.05,115.341,156.053z"/>
		<path style="fill:#AAD4F4;" d="M50.889,180.587c0,3.992-3.236,7.229-7.229,7.229s-7.229-3.236-7.229-7.229
			c0-3.992,3.236-7.229,7.229-7.229S50.889,176.595,50.889,180.587z"/>
		<path style="fill:#C5CED7;" d="M89.051,174.535c-5.909,0.011-11.818,0.023-17.728,0.034c-2.892,0.005-5.784,0.017-8.675,0.032
			c-1.509,0.008-3.017,0.016-4.526,0.024c-1.284,0.007-3.023-0.406-4.161,0.583c-0.499,0.433-0.499,1.452,0,1.885
			c1.145,0.995,2.869,0.576,4.161,0.584c1.446,0.008,2.892,0.016,4.338,0.023c2.955,0.016,5.909,0.028,8.864,0.033
			c5.909,0.011,11.818,0.023,17.728,0.034C90.521,177.771,90.523,174.533,89.051,174.535z"/>
		<path style="fill:#C5CED7;" d="M139.56,181.436c-14.325,0.011-28.651,0.023-42.976,0.034c-7.01,0.006-14.02,0.017-21.031,0.032
			c-3.658,0.008-7.315,0.016-10.973,0.024c-3.112,0.007-7.328-0.406-10.087,0.583c-1.209,0.433-1.209,1.452,0,1.885
			c2.776,0.995,6.955,0.577,10.087,0.584c3.505,0.008,7.01,0.016,10.515,0.023c7.163,0.016,14.325,0.027,21.488,0.033
			c14.325,0.011,28.65,0.023,42.976,0.034C143.122,184.671,143.128,181.433,139.56,181.436z"/>
		<path style="fill:#F2DBDE;" d="M50.889,205.97c0,3.992-3.236,7.229-7.229,7.229s-7.229-3.237-7.229-7.229s3.236-7.229,7.229-7.229
			S50.889,201.978,50.889,205.97z"/> -->
		<!-- <path style="fill:#C5CED7;" d="M73.596,199.918c-3.334,0.011-6.668,0.023-10.002,0.034c-1.632,0.006-3.263,0.017-4.895,0.032
			c-0.851,0.008-1.702,0.016-2.554,0.024c-0.724,0.007-1.705-0.406-2.348,0.583c-0.281,0.433-0.281,1.452,0,1.885
			c0.646,0.995,1.619,0.576,2.348,0.583c0.816,0.008,1.632,0.016,2.447,0.023c1.667,0.016,3.334,0.027,5.001,0.033
			c3.334,0.011,6.668,0.023,10.002,0.034C74.425,203.154,74.426,199.915,73.596,199.918z"/>
		<path style="fill:#C5CED7;" d="M146.571,206.818c-15.493,0.011-30.987,0.023-46.48,0.034c-7.582,0.005-15.164,0.017-22.746,0.032
			c-3.956,0.008-7.912,0.016-11.867,0.024c-3.366,0.007-7.925-0.406-10.91,0.583c-1.307,0.433-1.307,1.452,0,1.885
			c3.002,0.995,7.523,0.577,10.91,0.584c3.791,0.008,7.582,0.015,11.373,0.023c7.747,0.016,15.493,0.028,23.24,0.033
			c15.493,0.011,30.987,0.023,46.48,0.034C150.423,210.054,150.43,206.815,146.571,206.818z"/>
		<circle style="fill:#AAD4F4;" cx="43.66" cy="231.353" r="7.229"/> -->
		<!-- <path style="fill:#C5CED7;" d="M86.98,225.301c-5.564,0.011-11.128,0.023-16.692,0.034c-2.723,0.005-5.446,0.017-8.168,0.032
			c-1.421,0.008-2.841,0.016-4.262,0.024c-1.209,0.007-2.846-0.406-3.918,0.583c-0.469,0.433-0.469,1.452,0,1.885
			c1.078,0.995,2.702,0.577,3.918,0.584c1.361,0.008,2.723,0.016,4.084,0.023c2.782,0.016,5.564,0.027,8.346,0.033
			c5.564,0.011,11.128,0.023,16.692,0.034C88.363,228.536,88.366,225.298,86.98,225.301z"/>
		<path style="fill:#C5CED7;" d="M129.841,232.201c-12.706,0.011-25.411,0.023-38.117,0.034c-6.218,0.005-12.435,0.017-18.653,0.032
			c-3.244,0.008-6.488,0.016-9.732,0.024c-2.76,0.007-6.499-0.406-8.947,0.583c-1.072,0.433-1.072,1.452,0,1.885
			c2.462,0.995,6.169,0.576,8.947,0.583c3.109,0.008,6.218,0.016,9.327,0.023c6.353,0.016,12.706,0.028,19.059,0.033
			c12.706,0.011,25.411,0.023,38.117,0.034C133,235.436,133.005,232.198,129.841,232.201z"/> -->
	</g>
	<g>
		<path style="fill:#C58C72;" d="M300.936,349.972c0,0-11.465,85.299-11.924,89.427c-0.459,4.127,5.962,4.586,7.338,0.917
			c1.376-3.669,18.803-91.72,18.803-91.72L300.936,349.972z"/>
		<path style="fill:#C58C72;" d="M356.335,331.5c0,0,21.428,95.386,22.381,99.428c0.952,4.042,7.154,2.321,7.22-1.597
			c0.066-3.918-16.669-103.896-16.669-103.896L356.335,331.5z"/>
		<path style="fill:#C58C72;" d="M309.788,317.742c0,0,21.428,95.386,22.38,99.428c0.952,4.042,7.154,2.321,7.22-1.596
			c0.066-3.918-16.669-103.896-16.669-103.896L309.788,317.742z"/>
		<path style="fill:#746260;" d="M377.064,172.952c0,0,18.802-11.006,32.102,5.962c13.299,16.968-7.338,123.822-19.261,146.293
			c-11.924,22.471-72.917,27.516-88.51,28.433c-15.592,0.917-32.102-0.459-29.35-20.637c2.752-20.178,71.083-106.853,71.083-106.853
			L377.064,172.952z"/>
		<path style="fill:#625351;" d="M392.554,248.788c8.495-12.254,4.193-27.294,2.292-40.787c-0.533-3.786-1.069-7.577-0.376-11.38
			c0.646-3.549,1.941-7.012,2.149-10.64c0.326-5.676-1.681-10.922-7.465-12.179c-1.09-0.237-2.125,0.491-2.151,1.639
			c-0.218,9.604-5.928,18.21-6.723,27.846c-0.882,10.687,4.729,21.564,1.975,32.17c-1.128,4.345-4.255,6.887-6.953,10.28
			c-3.331,4.191-4.969,8.93-3.975,14.303c0.372,2.009,1.37,3.966,1.145,6.022c-0.243,2.213-1.469,4.439-2.224,6.516
			c-0.996,2.743-1.586,5.441-1.864,8.354c-0.181,1.895,0.067,3.93-0.594,5.72c-3.131,3.069-4.866,6.489-5.793,11.341
			c-0.372,1.951-0.584,3.916-0.823,5.883c-2.713,5.728-6.643,12.814-12.59,15.085c-7.753,2.961-16.193,4.379-24.399,5.371
			c-9.472,1.145-18.932,2.039-27.451,6.652c-5.175,2.802-16.427,9.697-13.72,16.966c0.398,1.069,1.199,2.237,2.438,2.438
			c3.347,0.543,5.261-0.872,8.064-2.551c3.001-1.797,6.122-3.038,9.543-3.779c8.167-1.77,16.477-2.082,24.78-2.729
			c8.723-0.68,17.219-2.253,25.605-4.741c3.868-1.148,8.071-2.573,11.49-4.752c3.794-2.418,6.48-6.302,8.96-9.973
			c2.2-3.257,4.721-6.72,6.245-10.364c1.701-4.065,1.243-8.564,1.96-12.83c1.007-5.993,2.34-11.337,2.843-17.4
			c0.515-6.21,3.978-11.924,2.998-18.287c-0.424-2.753-2.24-5.264-0.892-7.649C388.379,252.98,390.991,251.042,392.554,248.788z"/>
		<path style="fill:#EAC0A3;" d="M240.644,414.014c0,0,6.981,21.931,9.115,32.605c1.402,7.012-11.92,17.88-15.426,20.335
			c-3.506,2.454,1.052,5.96,4.908,3.506c0,0,2.498,3.243,5.653,1.841c0,0,1.139,3.199,4.996,1.446c0,0,1.534,2.191,3.988,0.789
			c2.454-1.402,18.116-16.657,19.546-26.426c0.789-5.39-4.032-10.956-4.733-20.773s0-22.438-1.402-24.542
			C265.887,400.691,242.397,404.197,240.644,414.014z"/>
		<path style="fill:#EAC0A3;" d="M205.055,403.537c0,0,3.821,22.696,4.431,33.564c0.401,7.14-14.32,16.023-18.137,17.959
			c-3.817,1.936,0.202,6.049,4.365,4.162c0,0,2.016,3.563,5.338,2.619c0,0,0.677,3.328,4.742,2.136c0,0,1.21,2.385,3.837,1.343
			c2.627-1.043,20.282-13.939,23.074-23.409c1.54-5.225-2.448-11.415-1.759-21.233c0.689-9.817,3.161-22.214,2.069-24.494
			C231.923,393.903,208.174,394.065,205.055,403.537z"/>
		<path style="fill:#8DC4CF;" d="M262.03,284.644c-1.402-0.351-35.761,7.012-51.538,27.697
			c-15.777,20.685-15.777,70.119-9.116,95.713c0,0,22.088,8.064,32.956,2.104c10.868-5.96,14.374-45.227,15.076-46.629
			c0.701-1.402,9.116-26.645,13.673-31.904c4.558-5.259,35.06-21.036,41.02-26.295c5.96-5.259,8.064-15.426,7.012-18.582
			c-1.052-3.155-15.777-0.351-19.633,0c-3.857,0.351-30.853-2.454-30.853-2.454"/>
		<path style="fill:#8DC4CF;" d="M372.411,287.289c0,0-3.052,25.916-13.921,36.083c-10.868,10.167-55.944,4.655-67.01,19.119
			c-11.066,14.464-15.777,56.446-15.777,66.613c0,0-26.645,12.271-44.526,4.558c0,0-4.706-53.204,12.621-83.442
			c17.88-31.203,47.681-36.112,67.315-43.474C330.747,279.385,372.411,287.289,372.411,287.289z"/>
		<path style="fill:#5C3142;" d="M329.158,54.992c-28.886,8.117-36.543,26.5-33.195,39.611s4.742,18.969,3.626,30.406
			c-1.116,11.437-7.811,11.158-2.511,25.664c5.3,14.505-17.574,24.269-9.205,40.448c8.369,16.179,97.075,17.574,102.096-3.905
			c5.021-21.479-9.484-29.29-7.253-41.843c2.232-12.553-6.974-23.153-1.674-38.495C386.343,91.535,362.911,45.508,329.158,54.992z"
			/>
		<path style="fill:#EAC0A3;" d="M227.935,175.959c0,0-6.758-8.177-9.466-21.036c-2.708-12.859-1.841-15.777-0.789-19.984
			c1.052-4.207,4.47-2.892,4.47-0.526c0,0,3.418-1.578,3.944,2.104c0.526,3.681,3.155,13.673,5.522,17.092
			c0,0,0.263-9.466,3.418-10.255c3.155-0.789,2.367,4.733,2.104,8.151c-0.263,3.418,2.104,13.41,2.63,17.88
			C240.293,173.855,229.249,177.273,227.935,175.959z"/>
		<path style="fill:#D06A6C;" d="M316.373,151.767c-12.446,2.367-15.339,7.626-17.705,11.57
			c-2.366,3.944-17.354,39.442-24.98,41.546c-7.625,2.104-30.502-37.339-32.605-38.127c-2.104-0.789-14.462,6.048-16.04,8.677
			c-1.578,2.63,26.431,58.155,41.546,62.319c15.115,4.163,32.08-21.299,32.08-21.299s1.578,14.462,1.841,25.506
			c0.263,11.044-10.781,39.442-10.781,39.442l90.454-0.263c0,0-5.522-22.613-5.785-34.446l13.498-20.247
			c-1.315-20.247-4.733-51.45-6.837-58.55c-2.104-7.1-14.287-10.956-22.964-15.777c-8.677-4.821-26.558-0.613-27.609-0.613
			S316.373,151.767,316.373,151.767z"/>
		<path style="fill:#EAC0A3;" d="M313.13,258.787c0,0-7.888,0.526-13.41,2.366c-5.522,1.841-8.677,4.207-10.255,5.785
			c-1.578,1.578-2.104,3.155,0,3.944c2.104,0.789,22.613,0.789,22.613,0.789L313.13,258.787z"/>
		<path style="fill:#D06A6C;" d="M387.894,226.445c0,0-58.988,25.769-76.342,27.609c0,0-2.63,15.777-0.263,20.51
			c0,0,11.307,1.578,37.864-8.151C375.711,256.684,393.416,251.425,387.894,226.445z"/>
		<path style="fill:#C58C72;" d="M395.777,467.538l-23.419-180.667c-0.204-1.572,0.906-3.012,2.478-3.216l5.182-0.672
			c1.572-0.204,3.012,0.906,3.216,2.478l23.42,180.667c0.204,1.572-0.906,3.012-2.478,3.216l-5.182,0.672
			C397.421,470.22,395.981,469.111,395.777,467.538z"/>
		<path style="fill:#C58C72;" d="M102.013,467.538l23.42-180.667c0.204-1.572-0.906-3.012-2.478-3.216l-5.182-0.672
			c-1.572-0.204-3.012,0.906-3.216,2.478l-23.42,180.667c-0.204,1.572,0.906,3.012,2.478,3.216l5.182,0.672
			C100.37,470.22,101.81,469.111,102.013,467.538z"/>
		<path style="fill:#EAC0A3;" d="M326.365,133.01c0,0,0.701,5.084,0,10.167c-0.701,5.084-7.363,8.414-9.992,8.59
			c0,0,6.311,14.9,22.088,14.55c15.777-0.351,19.633-14.199,19.633-14.199s-6.837-2.98-9.641-10.868
			c-1.844-5.186-2.98-22.088-3.155-23.49c-0.175-1.402-16.478,9.992-16.478,9.992L326.365,133.01z"/>
		<!-- <path style="fill:#E3A63E;" d="M300.325,102.099c0.841-18.803,4.75-27.022,14.979-32.973c10.228-5.951,15.249-1.86,15.249-1.86
			s-11.5,0.432-18.381,9.916c-6.881,9.484-7.097,21.339-7.097,21.339L300.325,102.099z"/> -->
		<!-- <path style="fill:#E3A63E;" d="M303.118,99.295c-6.865,2.737-5.035,10.306-2.531,14.912c1.025,1.885,3.829,4.342,7.313,4.296
			c6.983-0.092,7.084-4.56,7.408-8.958c0.236-3.207-0.061-7.234-3.248-9.601c-0.832-0.618-1.856-1.075-3.001-1.321
			C307.045,98.19,304.969,98.556,303.118,99.295z"/> -->
		<path style="fill:#4E4341;" d="M403.672,289.903H99.352c-1.549,0-2.804-1.255-2.804-2.804v-9.117c0-1.549,1.255-2.804,2.804-2.804
			h304.32c1.549,0,2.804,1.255,2.804,2.804v9.117C406.476,288.647,405.221,289.903,403.672,289.903z"/>
		<path style="fill:#9C9FA1;" d="M281.604,270.013h29.57c0.847,0,1.534,0.687,1.534,1.534v2.097c0,0.847-0.687,1.534-1.534,1.534
			h-29.57c-0.847,0-1.534-0.687-1.534-1.534v-2.097C280.07,270.699,280.757,270.013,281.604,270.013z"/>
		<g>
			<path style="fill:#FFFFFF;" d="M365.053,252.793v15.592c0,1.815,1.471,3.287,3.287,3.287h11.322c1.815,0,3.287-1.471,3.287-3.287
				v-15.592c0-1.815-1.471-3.287-3.287-3.287H368.34C366.525,249.506,365.053,250.977,365.053,252.793z M375.611,266.933h-3.22
				c-1.815,0-3.287-1.471-3.287-3.287v-6.115c0-1.815,1.471-3.287,3.287-3.287h3.22c1.815,0,3.287,1.471,3.287,3.287v6.115
				C378.898,265.461,377.427,266.933,375.611,266.933z"/>
			<path style="fill:#FFFFFF;" d="M372.093,245.182h-21.529c-1.054,0-1.908,0.854-1.908,1.908v26.179
				c0,1.054,0.854,1.908,1.908,1.908h21.529c1.054,0,1.908-0.854,1.908-1.908V247.09
				C374.001,246.036,373.147,245.182,372.093,245.182z"/>
		</g>
		<path style="fill:#B9BBBD;" d="M280.663,275.178h-94.385c-1.514,0-2.742-1.228-2.742-2.742v-59.681
			c0-1.514,1.228-2.742,2.742-2.742h94.385c1.514,0,2.742,1.227,2.742,2.742v59.681C283.404,273.95,282.177,275.178,280.663,275.178
			z"/>
		
			<ellipse transform="matrix(0.6399 -0.7685 0.7685 0.6399 -102.3509 266.7863)" style="fill:#FFFFFF;" cx="233.47" cy="242.596" rx="9.453" ry="9.453"/>
		<g>
			<path style="fill:#B9BBBD;" d="M151.73,275.178c-1.254,0-2.267-0.816-2.201-1.795c0.226-3.32,3.071-10.086,14.59-10.086
				c11.352,0,12.844,6.571,13.361,9.939c0.158,1.032-0.856,1.942-2.185,1.942H151.73z"/>
			<path style="fill:#86898A;" d="M167.535,269.778c-0.685-1.087-1.676-2.036-2.895-2.76c-2.351-1.396-6.102-2.106-8.836-1.046
				c-0.362,0.14-0.192,0.636,0.207,0.613c0.64-0.037,1.271-0.078,1.902-0.09c-0.429,0.26-0.825,0.62-1.022,0.792
				c-0.7,0.612-1.293,1.307-1.737,2.057c-0.437,0.738-0.732,1.517-0.874,2.326c-0.137,0.778-0.258,1.691,0.247,2.4
				c0.149,0.21,0.566,0.166,0.643-0.067c0.228-0.691,0.121-1.427,0.283-2.13c0.167-0.729,0.466-1.441,0.88-2.104
				c0.405-0.648,0.915-1.249,1.536-1.776c0.309-0.262,0.642-0.506,0.995-0.729c0.258-0.163,0.567-0.429,0.487-0.71
				c0,0,0.001-0.001,0.001-0.001c0.218,0.021,0.436,0.037,0.655,0.074c1.336,0.227,2.62,0.684,3.675,1.387
				c0.985,0.656,1.793,1.458,2.368,2.375c0.283,0.452,0.496,0.93,0.653,1.42c0.167,0.521,0.187,1.062,0.365,1.579
				c0.189,0.55,1.315,0.608,1.462,0C168.816,272.2,168.198,270.829,167.535,269.778z"/>
		</g>
		<path style="fill:#76A1AA;" d="M287.274,294.973c-0.489,0.012-1.019-0.023-1.499,0.074c-0.542,0.11-1.08,0.367-1.597,0.564
			c-0.984,0.374-1.959,0.773-2.926,1.19c-1.893,0.816-3.749,1.719-5.561,2.701c-3.671,1.991-7.147,4.313-10.436,6.884
			c-6.591,5.153-12.32,11.363-17.128,18.199c-5.016,7.131-8.958,14.962-11.874,23.172c-3.354,9.444-5.31,19.332-6.239,29.298
			c-0.932,9.99-0.825,20.07,0.221,30.047c0.127,1.208,0.358,2.391,0.612,3.579c0.073,0.342,0.595,0.256,0.599-0.081
			c0.025-2.495-0.146-4.967-0.266-7.458c-0.118-2.457-0.197-4.918-0.231-7.378c-0.068-4.954,0.065-9.927,0.429-14.868
			c0.717-9.753,2.426-19.464,5.375-28.795c2.655-8.399,6.317-16.433,11.129-23.82c4.465-6.853,9.864-13.108,16.092-18.419
			c6.193-5.281,13.261-9.611,20.889-12.48c0.449-0.169,0.909-0.316,1.352-0.5c0.487-0.202,0.908-0.58,1.339-0.882
			C287.973,295.704,287.858,294.959,287.274,294.973z"/>
		<path style="fill:#B44147;" d="M378.649,228.288c-0.488,0.329-1.006,0.516-1.526,0.778c-0.587,0.296-1.15,0.655-1.726,0.972
			c-1.012,0.555-2.059,1.045-3.103,1.537c0.081-0.269,0.091-0.571,0.083-0.934c-0.018-0.824-0.068-1.649-0.106-2.472
			c-0.071-1.566-0.151-3.131-0.239-4.695c-0.176-3.129-0.378-6.258-0.627-9.382c-0.491-6.159-1.19-12.291-2.048-18.41
			c-0.49-3.491-0.927-7.015-1.858-10.417c-0.061-0.223-0.41-0.181-0.407,0.055c0.049,3.118,0.448,6.217,0.756,9.321
			c0.301,3.031,0.572,6.064,0.822,9.099c0.511,6.203,1.023,12.407,1.38,18.621c0.099,1.729,0.188,3.459,0.267,5.189
			c0.039,0.865,0.076,1.73,0.111,2.596c0.031,0.771-0.019,1.526,0.56,2.036c-2.358,1.113-4.725,2.208-7.108,3.268
			c-5.347,2.376-10.756,4.613-16.218,6.71c-10.845,4.164-21.925,7.871-33.128,10.948c-1.262,0.347-2.619,0.735-3.445,1.828
			c-0.902,1.194-0.907,3.018-1.092,4.445c-0.222,1.708-0.338,3.431-0.409,5.151c-0.072,1.727-0.118,3.457,0.108,5.174
			c0.08,0.607,0.88,0.617,0.953,0c0.361-3.036,0.402-6.096,0.819-9.132c0.101-0.732,0.193-1.465,0.304-2.196
			c0.098-0.644,0.15-1.346,0.373-1.962c0.404-1.114,1.695-1.395,2.719-1.671c5.582-1.503,11.137-3.057,16.638-4.842
			c10.957-3.556,21.731-7.674,32.278-12.306c2.951-1.296,5.884-2.633,8.797-4.012c1.33-0.629,2.71-1.217,3.975-1.974
			c0.561-0.336,1.15-0.744,1.582-1.24c0.428-0.491,0.703-1.161,0.936-1.763C379.157,228.38,378.847,228.155,378.649,228.288z"/>
		<path style="fill:#B44147;" d="M299.087,214.45l-0.6-1.863c-0.4-1.242-0.813-2.48-1.221-3.72
			c-0.791-2.399-1.615-4.821-1.938-7.337c-0.294-2.296-0.208-4.651,0.249-6.919c0.227-1.124,0.539-2.236,0.925-3.316
			c0.192-0.538,0.415-1.065,0.6-1.606c0.149-0.434,0.338-0.834,0.196-1.291c-0.009-0.03-0.041-0.05-0.072-0.041
			c-0.706,0.201-1.081,1.124-1.367,1.735c-0.399,0.852-0.726,1.747-0.988,2.65c-0.514,1.772-0.808,3.613-0.88,5.456
			c-0.16,4.07,1.028,7.881,2.243,11.714c0.37,1.166,0.739,2.332,1.116,3.495l0.529,1.629c0.186,0.573,0.324,1.132,0.709,1.604
			c0.321,0.394,0.902,0.04,0.927-0.384C299.552,215.635,299.274,215.032,299.087,214.45z"/>
		<path style="fill:#B44147;" d="M357.938,151.192c-0.126,0.018-0.277,0.167-0.295,0.295c-0.201,1.489-1.108,2.826-1.962,4.031
			c-0.96,1.354-2.096,2.585-3.336,3.687c-2.458,2.184-5.41,3.837-8.557,4.789c-6.503,1.967-13.518,0.633-19.052-3.247
			c-1.553-1.089-2.962-2.388-4.191-3.833c-1.367-1.607-2.387-3.435-3.378-5.289c-0.553-1.034-2.086-0.122-1.565,0.915
			c0.937,1.865,1.944,3.636,3.254,5.267c1.174,1.461,2.53,2.759,4.013,3.903c2.948,2.274,6.417,3.902,10.068,4.654
			c7.397,1.523,15.092-0.733,20.729-5.705c1.558-1.374,2.934-2.958,4.085-4.687c0.56-0.84,1.186-1.759,1.476-2.736
			C359.514,152.272,359.13,151.019,357.938,151.192z"/>
			<path style="fill:#DF9F7A;" d="M348.259,140.651c-1.73-5.771-2.793-21.539-2.962-22.892c-0.175-1.402-16.478,9.992-16.478,9.992
				l-2.454,5.259c0,0,0.513,3.742,0.218,8.015c4.058,1.682,8.83,2.048,13.265,1.615C342.704,142.361,345.61,141.749,348.259,140.651z
				"/>
		<!-- <path style="fill:#E3A63E;" d="M353.985,101.856c0,0-1.493-15.026-7.439-23.804c-7.811-11.53-25.849-12.088-31.243-8.926
			c0,0,7.067-7.067,24.362-3.347c17.295,3.719,21.944,23.99,20.828,34.962C359.378,111.712,353.985,101.856,353.985,101.856z"/> -->
		<path style="fill:#EAC0A3;" d="M349.103,103.42c0,0-6.695-4.332-10.879-8.918c-4.184-4.586-11.158-7.176-13.669-13.8
			c0,0-3.626,8.229-9.066,9.903c-3.635,1.118-7.578,7.02-10.414,7.916c0,0-1.302,42.227,21.293,39.933
			C348.964,136.161,349.94,109.535,349.103,103.42z"/>
		<!-- <path style="fill:#E3A63E;" d="M351.533,99.584c-8.014,3.436-8.717,14.046-5.758,19.916c1.211,2.402,4.353,3.902,7.512,4.198
			c8.102,0.761,12.22-5.424,12.572-11.011c0.256-4.074-0.117-9.194-3.86-12.221c-0.977-0.79-2.178-1.377-3.52-1.698
			C356.12,98.205,353.695,98.658,351.533,99.584z"/> -->
		<!-- <path style="fill:#F5D643;" d="M353.518,99.462c-6.826,3.362-7.333,13.96-4.749,19.853c1.057,2.412,3.76,3.938,6.465,4.263
			c6.939,0.832,10.408-5.312,10.659-10.893c0.183-4.069-0.182-9.19-3.412-12.249c-0.843-0.798-1.876-1.396-3.027-1.728
			C357.43,98.124,355.358,98.555,353.518,99.462z"/> -->
		<path style="fill:#7E425B;" d="M347.765,100.208c-0.885-0.459-1.816-0.813-2.693-1.293c-0.875-0.479-1.718-1.014-2.525-1.6
			c-1.609-1.169-3.041-2.579-4.296-4.119c-1.333-1.636-2.546-3.312-4.272-4.566c-1.69-1.229-3.577-2.072-5.116-3.515
			c-0.818-0.766-1.513-1.656-2.139-2.583c-0.333-0.493-0.649-0.997-0.965-1.5c-0.281-0.449-0.514-0.884-0.961-1.186
			c-0.193-0.13-0.463,0.042-0.458,0.263c0.002,0.084,0.014,0.169,0.026,0.254c-0.032-0.079-0.065-0.156-0.094-0.24
			c-0.085-0.249-0.398-0.232-0.49,0c-0.176,0.446-0.496,0.787-0.63,1.261c-0.137,0.483-0.245,0.973-0.407,1.45
			c-0.299,0.88-0.751,1.72-1.318,2.457c-1.13,1.467-2.731,2.418-4.363,3.229c-1.66,0.825-3.396,1.521-4.952,2.541
			c-1.492,0.978-2.592,2.249-3.671,3.648c-1.072,1.39-2.236,3.075-3.977,3.658c-0.477,0.159-0.435,1.009,0.127,0.936
			c3.827-0.498,5.142-4.618,8.028-6.626c3.265-2.272,7.472-3.057,10.028-6.313c0.711-0.906,1.259-1.913,1.641-3
			c0.201-0.571,0.355-1.165,0.392-1.772c0.006-0.102-0.006-0.194-0.017-0.287c0.239,0.521,0.563,1.026,0.811,1.474
			c0.503,0.909,1.046,1.797,1.674,2.625c1.326,1.748,3.037,2.866,4.845,4.059c1.847,1.22,3.151,2.855,4.498,4.583
			c1.289,1.652,2.72,3.148,4.375,4.437c0.935,0.728,1.912,1.397,2.941,1.985c1.007,0.575,2.099,1.177,3.218,1.497
			C348.054,102.259,348.747,100.717,347.765,100.208z"/>
		<path style="fill:#7E425B;" d="M378.375,110.471c-0.174-0.066-0.316-0.212-0.499-0.28c-0.248-0.092-0.506-0.131-0.767-0.17
			c-0.457-0.069-0.92-0.099-1.382-0.128c-1.005-0.062-1.993-0.159-2.982-0.36c-0.965-0.195-1.927-0.433-2.862-0.745
			c-0.463-0.155-0.924-0.322-1.377-0.506c-0.473-0.193-0.932-0.456-1.434-0.564c-0.445-0.096-0.689,0.391-0.421,0.724
			c0.63,0.785,1.753,1.315,2.641,1.746c0.982,0.476,2.001,0.871,3.061,1.133c1.037,0.256,2.108,0.416,3.175,0.474
			c0.567,0.031,1.15,0.007,1.706-0.116c0.245-0.054,0.494-0.13,0.716-0.247c0.197-0.104,0.319-0.272,0.497-0.384
			C378.695,110.896,378.625,110.566,378.375,110.471z"/>
		<path style="fill:#7E425B;" d="M304.928,130.414c0.331-2.137,0.219-4.405-0.197-6.523c-0.049-0.249-0.409-0.174-0.422,0.057
			c-0.111,1.958,0.051,3.915-0.299,5.858c-0.339,1.881-1.249,3.496-2,5.229c-0.763,1.758-1.087,3.555-0.932,5.471
			c0.156,1.93,0.756,3.749,1.133,5.636c0.222,1.112,0.263,2.228,0.133,3.355c-0.133,1.152-0.406,2.242-0.443,3.404
			c-0.013,0.406,0.62,0.612,0.801,0.217c0.803-1.759,1.134-3.819,0.972-5.756c-0.167-2.005-0.904-3.901-1.21-5.882
			c-0.305-1.975-0.156-3.908,0.583-5.771C303.745,133.945,304.633,132.314,304.928,130.414z"/>
		<path style="fill:#7E425B;" d="M311.376,138.141c0.236-0.446,0.584-0.816,0.82-1.258c0.109-0.203-0.07-0.439-0.296-0.384
			c-1.119,0.271-1.808,1.669-2.085,2.68c-0.401,1.464-0.295,3.012-0.208,4.509c0.091,1.571,0.108,3.168,0.291,4.731
			c0.128,1.094,0.492,2.015,1.67,2.22c0.182,0.032,0.285-0.192,0.126-0.3c-0.378-0.258-0.436-0.897-0.503-1.328
			c-0.081-0.525-0.088-1.055-0.122-1.585c-0.085-1.329-0.17-2.659-0.255-3.988c-0.079-1.248-0.225-2.536,0.032-3.773
			C310.958,139.139,311.125,138.618,311.376,138.141z"/>
		<path style="fill:#7E425B;" d="M319.979,140.9c-0.058-0.178-0.261-0.225-0.398-0.105c-0.397,0.345-0.551,0.967-0.692,1.455
			c-0.164,0.568-0.321,1.138-0.454,1.715c-0.247,1.078-0.554,2.265-0.231,3.36c0.034,0.113,0.172,0.118,0.236,0.031
			c0.659-0.913,0.817-2.091,1.053-3.163c0.123-0.559,0.236-1.119,0.36-1.678C319.963,142.014,320.142,141.403,319.979,140.9z"/>
		<path style="fill:#7E425B;" d="M377.794,142.795c0.5-2.931-0.243-5.629-1.369-8.325c-1.131-2.706-2.213-5.399-2.775-8.291
			c-0.316-1.624-0.475-3.276-0.511-4.93c-0.036-1.653,0.223-3.351,0.023-4.992c-0.014-0.115-0.184-0.201-0.248-0.067
			c-0.572,1.206-0.689,2.601-0.776,3.919c-0.097,1.478-0.09,2.962,0.02,4.439c0.211,2.839,0.682,5.741,1.668,8.421
			c0.973,2.645,2.374,5.344,2.21,8.238c-0.08,1.404-0.521,2.762-0.81,4.131c-0.293,1.389-0.405,2.773-0.285,4.188
			c0.13,1.526,0.444,3.028,0.608,4.549c0.084,0.779,0.11,1.555,0.12,2.337c0.01,0.756,0.148,1.513,0.201,2.268
			c0.017,0.241,0.321,0.411,0.507,0.21c0.956-1.038,1.269-2.256,1.231-3.64c-0.038-1.388-0.307-2.769-0.51-4.139
			c-0.204-1.38-0.357-2.798-0.173-4.19C377.111,145.527,377.558,144.18,377.794,142.795z"/>
		<path style="fill:#7E425B;" d="M369.735,149.306c-0.138-2.008-0.595-3.99-1.211-5.901c-1.249-3.877-2.804-7.587-3.206-11.681
			c-0.225-2.288-0.204-4.639,0.004-6.928c0.033-0.364-0.558-0.44-0.637-0.086c-0.859,3.839-0.819,7.78-0.113,11.647
			c0.715,3.916,2.419,7.583,3.036,11.516c0.168,1.069,0.217,2.158,0.181,3.239c-0.017,0.519-0.03,1.04-0.065,1.559
			c-0.038,0.566,0.055,1.065,0.092,1.626c0.017,0.261,0.353,0.452,0.553,0.229c0.261-0.29,0.572-0.571,0.759-0.917
			c0.238-0.441,0.368-0.976,0.471-1.465C369.794,151.217,369.799,150.247,369.735,149.306z"/>
		<path style="fill:#7E425B;" d="M360.132,146.821c-0.378-0.918-0.74-1.841-1.068-2.778c-0.656-1.875-1.202-3.782-1.673-5.711
			c-0.472-1.934-0.825-3.905-1.013-5.887c-0.089-0.939-0.147-1.892-0.086-2.835c0.053-0.824,0.416-1.727,0.284-2.544
			c-0.014-0.084-0.138-0.135-0.207-0.084c-0.67,0.498-0.835,1.513-0.959,2.291c-0.156,0.978-0.194,1.965-0.145,2.953
			c0.099,2.015,0.382,4.029,0.736,6.015c0.361,2.029,0.888,4.031,1.552,5.981c0.345,1.011,0.722,2.011,1.134,2.998
			c0.343,0.823,0.747,1.95,1.621,2.327c0.156,0.067,0.339,0.022,0.39-0.159C360.941,148.53,360.454,147.604,360.132,146.821z"/>
		<path style="fill:#7E425B;" d="M353.106,142.157c-0.384-1.098-0.48-2.29-0.67-3.435c-0.221-1.33-0.441-2.659-0.634-3.994
			c-0.193-1.341-0.385-2.682-0.551-4.027c-0.16-1.294-0.165-2.706-0.508-3.965c-0.064-0.236-0.374-0.162-0.399,0.054
			c-0.16,1.378,0.103,2.899,0.218,4.278c0.122,1.465,0.268,2.927,0.451,4.385c0.173,1.381,0.36,2.76,0.586,4.133
			c0.144,0.873,0.18,2.539,1.243,2.835C352.992,142.464,353.161,142.315,353.106,142.157z"/>
		<path style="fill:#7E425B;" d="M318.264,76.195c-0.019-0.079-0.115-0.093-0.17-0.045c-0.34,0.298-0.552,0.817-0.752,1.218
			c-0.233,0.467-0.475,0.931-0.727,1.388c-0.498,0.902-1.081,1.759-1.746,2.547c-0.66,0.782-1.396,1.502-2.18,2.159
			c-0.401,0.336-0.828,0.637-1.234,0.965c-0.399,0.322-0.754,0.678-1.117,1.041c-0.117,0.118,0.004,0.301,0.156,0.268
			c2.124-0.46,3.842-2.203,5.152-3.858c0.676-0.855,1.277-1.765,1.778-2.733c0.247-0.477,0.457-0.969,0.629-1.478
			C318.201,77.228,318.376,76.657,318.264,76.195z"/>
		<path style="fill:#7E425B;" d="M347.327,90.384c-0.097-0.145-0.151-0.249-0.301-0.348c-0.093-0.062-0.196-0.039-0.268,0.023
			c-0.073-0.039-0.147-0.078-0.218-0.121c-0.214-0.128-0.425-0.267-0.634-0.404c-0.417-0.275-0.808-0.583-1.184-0.912
			c-0.714-0.624-1.388-1.294-2.066-1.956c-1.429-1.395-2.902-2.745-4.776-3.506c-2.051-0.833-4.163-1.201-5.752-2.872
			c-0.703-0.738-1.272-1.592-1.778-2.474c-0.427-0.743-0.77-1.817-1.484-2.331c-0.061-0.044-0.129,0.017-0.135,0.078
			c-0.074,0.716,0.363,1.502,0.66,2.136c0.37,0.789,0.777,1.566,1.271,2.286c0.956,1.393,2.19,2.476,3.743,3.155
			c1.68,0.735,3.451,1.149,4.936,2.28c1.312,1,2.356,2.306,3.501,3.482c0.656,0.674,1.372,1.3,2.143,1.839
			c0.688,0.481,1.711,1.077,2.342,0.197C347.433,90.788,347.426,90.533,347.327,90.384z"/>
		<path style="fill:#7E425B;" d="M345.447,82.832c-0.834-0.365-1.695-0.632-2.482-1.099c-0.785-0.466-1.493-1.015-2.11-1.689
			c-0.302-0.329-0.592-0.674-0.848-1.04c-0.266-0.381-0.485-0.796-0.785-1.152c-0.127-0.151-0.43-0.034-0.407,0.169
			c0.095,0.861,0.631,1.731,1.145,2.409c0.579,0.765,1.265,1.429,2.041,1.993c0.763,0.555,1.629,0.907,2.498,1.26
			c0.415,0.169,0.837,0.329,1.235,0.536c0.41,0.213,0.757,0.415,1.214,0.501c0.096,0.018,0.2-0.042,0.198-0.151
			C347.124,83.674,346.184,83.155,345.447,82.832z"/>
		<path style="fill:#7E425B;" d="M310.455,67.678c-0.596-0.288-1.397-0.031-1.979,0.193c-0.745,0.287-1.442,0.664-2.097,1.121
			c-1.308,0.912-2.44,2.078-3.278,3.437c-0.982,1.592-1.432,3.405-1.929,5.188c-0.522,1.875-1.173,3.714-1.973,5.489
			c-0.874,1.939-2.072,3.75-2.721,5.782c-0.077,0.241,0.23,0.379,0.398,0.232c1.738-1.528,2.728-3.801,3.622-5.891
			c0.925-2.163,1.584-4.383,2.208-6.647c0.588-2.137,1.457-4.062,3.068-5.624c0.733-0.711,1.556-1.283,2.45-1.771
			c0.708-0.387,1.783-0.666,2.279-1.326C310.543,67.805,310.514,67.707,310.455,67.678z"/>
		<path style="fill:#7E425B;" d="M372.386,92.311c-0.982-1.328-2.101-2.464-2.89-3.939c-0.808-1.51-1.422-3.114-2.2-4.639
			c-0.813-1.594-1.852-2.994-3.164-4.213c-1.379-1.282-2.924-2.38-4.237-3.734c-1.493-1.539-2.191-3.356-2.914-5.338
			c-0.656-1.8-1.516-3.455-2.702-4.965c-2.292-2.917-5.516-5.042-9.009-6.241c-2.344-0.805-4.806-1.237-7.283-1.305
			c-2.54-0.07-5.154,0.133-7.59,0.875c-0.365,0.111-0.32,0.743,0.094,0.698c2.19-0.238,4.374-0.538,6.583-0.515
			c2.264,0.024,4.528,0.31,6.705,0.943c3.575,1.04,6.863,3.146,9.209,6.049c1.221,1.509,2.058,3.219,2.68,5.049
			c0.651,1.913,1.333,3.706,2.674,5.253c1.193,1.376,2.662,2.469,4.029,3.66c1.345,1.171,2.481,2.437,3.34,4.007
			c0.919,1.681,1.58,3.488,2.484,5.177c0.813,1.52,1.962,3.354,3.777,3.717C372.25,92.906,372.594,92.591,372.386,92.311z"/>
		<path style="fill:#7E425B;" d="M376.625,89.098c-0.771-1.75-2.664-2.848-3.953-4.179c-1.3-1.342-1.796-3.106-2.464-4.8
			c-0.587-1.489-1.383-2.839-2.566-3.935c-1.075-0.996-2.512-2.023-4.023-1.973c-0.095,0.003-0.115,0.116-0.045,0.168
			c0.634,0.469,1.331,0.804,1.993,1.238c0.683,0.448,1.298,0.994,1.833,1.611c1.127,1.3,1.653,2.86,2.151,4.476
			c0.513,1.668,1.142,3.167,2.374,4.438c0.638,0.658,1.34,1.268,2.036,1.864c0.696,0.596,1.468,1.217,2.355,1.493
			C376.567,89.577,376.715,89.301,376.625,89.098z"/>
		<path style="fill:#7E425B;" d="M373.59,106.39c-1.158-2.744-3.782-4.388-5.641-6.614c-0.863-1.033-1.489-2.249-1.976-3.497
			c-0.509-1.304-0.815-2.681-1.334-3.979c-0.075-0.188-0.224-0.277-0.427-0.243c-0.382,0.065-0.536,0.233-0.568,0.613
			c-0.006,0.07,0.089,0.127,0.147,0.084c0.067-0.036,0.138-0.031,0.208-0.038c0.15,1.271,0.473,2.545,0.841,3.764
			c0.414,1.368,0.965,2.726,1.74,3.932c0.83,1.289,1.919,2.371,3.001,3.446c1.127,1.119,2.282,2.165,3.767,2.773
			C373.48,106.684,373.645,106.521,373.59,106.39z"/>
		<path style="fill:#DF9F7A;" d="M226.559,152.776c-0.373-0.636-0.699-1.289-0.959-1.979c-0.59-1.564-1.027-3.202-1.418-4.826
			c-0.406-1.685-0.726-3.394-0.974-5.109c-0.129-0.892-0.236-1.788-0.318-2.686c-0.074-0.802-0.015-1.761-0.339-2.505
			c-0.106-0.243-0.433-0.129-0.507,0.066c-0.298,0.783-0.127,1.851-0.085,2.675c0.049,0.944,0.124,1.886,0.229,2.826
			c0.204,1.815,0.521,3.613,0.937,5.392c0.39,1.672,0.836,3.358,1.494,4.948c0.428,1.035,1.259,3.022,2.619,3.057
			c0.077,0.002,0.166-0.074,0.156-0.156C227.322,153.887,226.856,153.282,226.559,152.776z"/>
		<path style="fill:#5C3142;" d="M313.967,97.722c-0.103-0.134-0.215-0.249-0.344-0.357c-0.324-0.272-0.663-0.433-1.057-0.58
			c-0.624-0.232-1.302-0.256-1.954-0.154c-0.537,0.084-1.074,0.308-1.513,0.628c-0.258,0.188-0.51,0.389-0.714,0.636
			c-0.203,0.246-0.343,0.52-0.332,0.85c0.005,0.159,0.033,0.324,0.057,0.48c0.066,0.408,0.574,0.63,0.937,0.532
			c0.077-0.021,0.154-0.035,0.232-0.052c0.236-0.05,0.421-0.158,0.6-0.316c0.067-0.059,0.133-0.122,0.199-0.183
			c0.038-0.025,0.075-0.052,0.114-0.076c0.081-0.05,0.165-0.096,0.251-0.138c0.031-0.012,0.083-0.034,0.102-0.04
			c0.097-0.032,0.196-0.058,0.296-0.079c0.008-0.002,0.022-0.004,0.035-0.006c0.016-0.002,0.033-0.003,0.038-0.004
			c0.093-0.005,0.186-0.006,0.279-0.001c0.013,0,0.06,0.006,0.096,0.009c0.095,0.019,0.19,0.042,0.283,0.07
			c0.036,0.011,0.072,0.024,0.108,0.037c0.174,0.094,0.341,0.196,0.512,0.296c0.09,0.052,0.171,0.12,0.26,0.172
			c0.3,0.174,0.647,0.193,0.981,0.124c0.335-0.069,0.694-0.412,0.754-0.754C314.259,98.412,314.224,98.055,313.967,97.722z"/>
		<g>
			<path style="fill:#5C3142;" d="M331.694,98.364c0.005-0.001,0.007-0.002,0.012-0.002c-0.001,0-0.001,0-0.002,0
				C331.701,98.363,331.698,98.363,331.694,98.364z"/>
			<path style="fill:#5C3142;" d="M335.881,97.723c-0.168-0.355-0.521-0.599-0.838-0.813c-0.185-0.124-0.381-0.227-0.584-0.317
				c-0.591-0.261-1.182-0.41-1.83-0.453c-0.538-0.036-1.097,0.03-1.608,0.204c-0.575,0.196-1.323,0.52-1.649,1.06
				c-0.199,0.328-0.155,0.762,0.074,1.058c0.242,0.313,0.619,0.423,1.002,0.342c0.161-0.034,0.298-0.118,0.441-0.194
				c0.049-0.026,0.1-0.05,0.149-0.075c0.148-0.075-0.058,0.023-0.058,0.023c-0.005-0.045,0.546-0.165,0.603-0.177
				c0.028-0.005,0.073-0.009,0.113-0.017c-0.065,0.009-0.149,0.008-0.035,0.001c0.015-0.001,0.03-0.002,0.045-0.003
				c0.015-0.003,0.034-0.005,0.042-0.01c-0.007,0.004-0.023,0.007-0.04,0.01c0.084-0.006,0.168-0.014,0.251-0.019
				c0.213-0.013,0.421-0.003,0.633,0.009c0.025,0.003,0.05,0.008,0.073,0.012c0.099,0.019,0.197,0.041,0.294,0.067
				c0.097,0.026,0.193,0.056,0.288,0.09c0.022,0.008,0.048,0.016,0.073,0.028c0.181,0.093,0.353,0.191,0.522,0.304
				c0.026,0.021,0.06,0.048,0.074,0.06c0.139,0.124,0.277,0.247,0.447,0.327c0.436,0.204,0.993,0.21,1.345-0.174
				C336.062,98.681,336.101,98.188,335.881,97.723z"/>
		</g>
		<path style="fill:#5C3142;" d="M313.558,107.83c0.001-0.093-0.001-0.186-0.001-0.279c-0.001-0.334-0.046-0.659-0.094-0.991
			l-0.163-1.137c-0.053-0.223-0.155-0.416-0.306-0.581c-0.121-0.186-0.28-0.333-0.479-0.44c-0.136-0.057-0.272-0.115-0.408-0.172
			c-0.227-0.071-0.454-0.081-0.682-0.03c-0.154,0.001-0.298,0.039-0.431,0.116c-0.212,0.069-0.395,0.187-0.55,0.353
			c-0.293,0.319-0.536,0.76-0.5,1.208c0.038,0.48,0.076,0.96,0.114,1.44c0.019,0.24,0.038,0.48,0.057,0.72
			c0.025,0.311,0.083,0.609,0.146,0.91c0.006,0.037,0.013,0.073,0.022,0.111c0.004,0.021,0.008,0.041,0.013,0.063
			c0.002-0.001,0.005-0.001,0.007-0.002c0.077,0.264,0.22,0.519,0.398,0.697c0.273,0.273,0.722,0.479,1.114,0.462
			c0.407-0.018,0.83-0.152,1.114-0.462c0.082-0.106,0.164-0.213,0.246-0.319c0.142-0.246,0.214-0.511,0.215-0.795
			c0.005-0.053,0.01-0.106,0.016-0.16c0.003-0.006,0.006-0.011,0.009-0.017C313.511,108.298,313.556,108.087,313.558,107.83z"/>
		<path style="fill:#5C3142;" d="M334.347,107.83c0.001-0.093-0.001-0.186-0.001-0.279c-0.001-0.334-0.046-0.659-0.094-0.991
			l-0.163-1.137c-0.053-0.223-0.155-0.416-0.306-0.581c-0.12-0.186-0.28-0.333-0.479-0.44c-0.136-0.057-0.272-0.115-0.408-0.172
			c-0.227-0.071-0.454-0.081-0.681-0.03c-0.154,0.001-0.298,0.039-0.431,0.116c-0.212,0.069-0.395,0.187-0.55,0.353
			c-0.293,0.319-0.536,0.76-0.501,1.208c0.038,0.48,0.076,0.96,0.114,1.44c0.019,0.24,0.038,0.48,0.057,0.72
			c0.025,0.311,0.083,0.609,0.146,0.91c0.006,0.037,0.013,0.073,0.022,0.111c0.004,0.021,0.008,0.041,0.013,0.063
			c0.002-0.001,0.004-0.001,0.007-0.002c0.077,0.264,0.22,0.519,0.398,0.697c0.273,0.273,0.722,0.479,1.114,0.462
			c0.408-0.018,0.83-0.152,1.114-0.462c0.082-0.106,0.164-0.213,0.246-0.319c0.142-0.246,0.214-0.511,0.215-0.795
			c0.005-0.053,0.01-0.106,0.016-0.16c0.003-0.006,0.006-0.011,0.009-0.017C334.301,108.298,334.345,108.087,334.347,107.83z"/>
		<path style="fill:#DF9F7A;" d="M323.787,113.985c-0.245-0.068-0.445-0.073-0.682-0.046c-0.38,0.045-0.496,0.062-0.81,0.206
			c-0.17,0.067-0.345,0.114-0.522,0.154c-0.119,0.004-0.237,0.017-0.357,0.002c0.08,0.011,0.159,0.021,0.239,0.032h0
			c-0.143-0.02-0.286-0.039-0.428-0.057c-0.354-0.056-0.636-0.202-1.017-0.1c-0.278,0.074-0.512,0.195-0.679,0.449
			c-0.272,0.414-0.262,0.977-0.008,1.392c0.152,0.248,0.346,0.492,0.572,0.679c0.661,0.548,1.543,0.658,2.372,0.547
			c0.34-0.046,0.669-0.105,0.991-0.227c0.334-0.126,0.637-0.313,0.879-0.576c0.287-0.312,0.483-0.709,0.493-1.138
			C324.845,114.648,324.396,114.154,323.787,113.985z"/>
		<path style="fill:#CF644E;" d="M327.272,124.165c-0.481-0.822-1.29-1.2-2.209-1.267c-0.224-0.016-0.349-0.006-0.597,0.027
			c-0.15,0.012-0.298,0.034-0.444,0.065c-0.029,0.012-0.057,0.024-0.085,0.036c-0.468,0.19-0.97,0.309-1.472,0.399
			c-0.114,0.008-0.227,0.023-0.341,0.022c-0.205-0.002-0.406,0.022-0.606,0.052c-0.24,0.014-0.477,0.002-0.717,0.035
			c-0.301,0.04-0.4,0.054-0.674,0.169c-0.312,0.132-0.203,0.068-0.466,0.271c-0.364,0.282-0.544,0.599-0.711,1.03
			c-0.224,0.578-0.032,1.356,0.277,1.863c0.178,0.291,0.426,0.569,0.692,0.788c0.466,0.384,0.879,0.7,1.485,0.845
			c0.416,0.1,0.851,0.144,1.275,0.185c0.682,0.065,1.375-0.019,2.035-0.196c0.229-0.061,0.451-0.14,0.671-0.229
			c0.558-0.224,0.913-0.349,1.347-0.783c0.198-0.198,0.385-0.479,0.542-0.731C327.751,125.975,327.725,124.939,327.272,124.165z"/>
		<!-- <path style="fill:#F5D643;" d="M348.406,118.221c0,0-9.484,7.811-18.783,8.741l0.558,3.347c0,0,12.274-2.418,19.898-9.112
			L348.406,118.221z"/> -->
		<!-- <path style="fill:#E3A63E;" d="M330,131.611h-5.589c-1.429,0-2.599-1.169-2.599-2.599v-1.125c0-1.429,1.169-2.599,2.599-2.599H330
			c1.429,0,2.599,1.17,2.599,2.599v1.125C332.598,130.441,331.429,131.611,330,131.611z"/> -->
		<path style="fill:#DFA081;" d="M312.778,112.692l-0.239-0.566c-0.124-0.16-0.247-0.32-0.37-0.479
			c-0.215-0.231-0.469-0.394-0.762-0.49c-0.282-0.148-0.587-0.216-0.913-0.204l-1.475,0.05c-0.321-0.012-0.62,0.055-0.898,0.201
			c-0.289,0.094-0.539,0.255-0.75,0.482c-0.227,0.211-0.388,0.461-0.482,0.75c-0.146,0.278-0.213,0.577-0.201,0.898
			c0.028,0.207,0.056,0.413,0.083,0.62c0.111,0.395,0.311,0.738,0.6,1.029c0.157,0.122,0.314,0.243,0.472,0.365
			c0.364,0.211,0.756,0.317,1.177,0.318c0.032,0,0.063,0.001,0.095,0.001c0.279,0.105,0.574,0.169,0.875,0.157
			c0.264-0.011,0.528-0.057,0.788-0.105c0.06-0.011,0.119-0.026,0.177-0.045c0.252-0.082,0.496-0.194,0.736-0.307
			c0.16-0.123,0.319-0.247,0.479-0.37c0.231-0.215,0.394-0.469,0.49-0.762c0.107-0.185,0.161-0.384,0.162-0.598
			C312.891,113.322,312.877,113.007,312.778,112.692z"/>
		<path style="fill:#DFA081;" d="M340.732,112.785l-0.283-0.596c-0.146-0.168-0.293-0.337-0.439-0.505
			c-0.254-0.243-0.555-0.415-0.903-0.516c-0.334-0.156-0.695-0.228-1.081-0.215l-1.748,0.052c-0.38-0.013-0.735,0.058-1.064,0.211
			c-0.342,0.099-0.639,0.268-0.889,0.508c-0.269,0.222-0.46,0.486-0.571,0.79c-0.173,0.293-0.252,0.608-0.238,0.946
			c0.033,0.218,0.066,0.435,0.099,0.653c0.131,0.416,0.368,0.777,0.71,1.084c0.186,0.128,0.373,0.256,0.559,0.384
			c0.431,0.222,0.895,0.334,1.394,0.335c0.038,0.001,0.075,0.001,0.113,0.002c0.331,0.111,0.68,0.178,1.037,0.165
			c0.313-0.011,0.625-0.06,0.933-0.111c0.071-0.012,0.141-0.028,0.209-0.047c0.299-0.087,0.587-0.204,0.871-0.323
			c0.189-0.13,0.379-0.26,0.568-0.39c0.274-0.226,0.467-0.494,0.58-0.803c0.127-0.194,0.191-0.405,0.192-0.63
			C340.866,113.449,340.849,113.117,340.732,112.785z"/>
		<path style="fill:#CA4E54;" d="M363.5,212.802c0.122-1.826-1.726-3.615-3.559-3.27c-1.105-0.129-2.194,0.101-3.319,0.665
			c-0.259,0.13-0.602,0.262-0.891,0.418c-0.039,0.012-0.068,0.021-0.122,0.038c-0.566,0.184-1.107,0.462-1.617,0.764
			c-0.391,0.232-0.79,0.45-1.197,0.655c-0.203,0.102-0.408,0.201-0.615,0.297c-0.181,0.084-0.865,0.283-0.195,0.092
			c0.719-0.205-0.692,0.234-0.857,0.289c-0.49,0.161-0.986,0.302-1.484,0.437c-0.81,0.218-1.82,0.247-2.598,0.542
			c-0.178,0.016-0.355,0.034-0.533,0.047c-0.52,0.038-1.039,0.033-1.559,0.057c-0.922,0.044-1.835,0.149-2.761,0.145
			c-0.915-0.004-1.822-0.116-2.731-0.079c-0.045-0.013-0.088-0.026-0.151-0.045c-0.219-0.066-0.446-0.115-0.666-0.178
			c-0.443-0.126-0.874-0.262-1.323-0.362c-1.044-0.233-1.651-0.489-2.578-1.046c-2.086-1.251-4.236-2.594-6.667-3.024
			c-2.55-0.451-5.144-0.085-7.641,0.522c-2.414,0.587-4.595,1.765-6.879,2.608c-0.951,0.351-1.915,0.654-2.908,0.86
			c-0.16,0.033-0.321,0.061-0.482,0.089c-0.064,0.008-0.312,0.045-0.446,0.056c-0.494,0.041-0.99,0.057-1.486,0.039
			c-0.527-0.02-1.054-0.059-1.582-0.078c-0.01,0-0.076-0.009-0.144-0.018c-0.126-0.033-0.481-0.111-0.528-0.123
			c-0.511-0.128-0.747-0.21-1.022-0.329c-0.324-0.139-0.45-0.29-0.862-0.404c-0.223-0.03-0.447-0.06-0.67-0.09
			c-0.02,0-0.027,0.001-0.044,0.001c-1.068-0.409-2.686,0.153-2.525,1.556c0.06,0.52,0.026,0.813,0.095,1.297
			c0.112,0.79,0.557,1.347,1.061,1.941c0.679,0.8,1.522,1.452,2.461,1.918c2.078,1.032,4.304,1.242,6.586,0.976
			c2.529-0.294,4.713-1.016,7.043-2.019c1.247-0.537,2.482-1.046,3.707-1.619c1.066-0.498,2.125-0.992,3.304-1.159
			c2.299-0.325,4.179,0.636,6.052,1.847c0.87,0.563,1.702,1.16,2.535,1.775c-0.037-0.024,0.22,0.175,0.255,0.201
			c0.366,0.282,0.728,0.594,1.124,0.836c0.483,0.294,1.023,0.518,1.54,0.743c0.129,0.056,0.34,0.153,0.539,0.243
			c0.268,0.184,0.624,0.412,0.781,0.49c0.617,0.309,1.29,0.549,1.941,0.782c0.97,0.347,1.964,0.621,2.972,0.833
			c2.677,0.564,5.366,0.324,8.045-0.099c2.559-0.404,5.048-1.351,7.334-2.559c0.597-0.315,1.148-0.651,1.683-1.065
			c0.617-0.477,1.063-0.903,1.484-1.614c-0.274,0.462-0.421,0.588,0.03,0.11C362.7,216.449,363.84,214.68,363.5,212.802z"/>
	</g>
	<g>
		<path style="fill:#C58C72;" d="M465,133.284h-63.516c-1.703,0-3.096-1.393-3.096-3.096V43.742c0-1.703,1.393-3.096,3.096-3.096
			H465c1.702,0,3.095,1.393,3.095,3.096v86.446C468.095,131.891,466.702,133.284,465,133.284z"/>
		<path style="fill:#FFFFFF;" d="M457.433,125.258h-48.382c-1.703,0-3.096-1.393-3.096-3.096V51.768
			c0-1.702,1.393-3.096,3.096-3.096h48.382c1.703,0,3.096,1.393,3.096,3.096v70.395
			C460.529,123.865,459.136,125.258,457.433,125.258z"/>
		<path style="fill:#B9BBBD;" d="M449.178,115.857h-31.873c-1.703,0-3.096-1.393-3.096-3.096V61.169
			c0-1.702,1.393-3.095,3.096-3.095h31.873c1.703,0,3.096,1.393,3.096,3.095v51.592
			C452.274,114.464,450.881,115.857,449.178,115.857z"/>
		<path style="fill:#746260;" d="M437.408,69.174c-0.011-0.022-0.022-0.044-0.033-0.065c-0.677-1.256-1.603-2.265-2.777-3.025
			c-1.041-0.953-2.263-1.596-3.666-1.93c-1.433-0.449-2.866-0.514-4.299-0.193c-1.435,0.065-2.771,0.492-4.009,1.279
			c-0.727,0.562-1.455,1.124-2.182,1.686c-1.336,1.345-2.26,2.931-2.773,4.757c-0.128,0.956-0.257,1.911-0.385,2.866
			c0.006,1.946,0.497,3.76,1.472,5.441c0.011,0.022,0.022,0.044,0.033,0.066c0.677,1.256,1.603,2.265,2.777,3.025
			c1.041,0.953,2.263,1.596,3.666,1.93c1.433,0.449,2.866,0.513,4.299,0.193c1.435-0.065,2.771-0.492,4.008-1.279
			c0.727-0.562,1.455-1.124,2.182-1.686c1.336-1.345,2.26-2.931,2.773-4.757c0.128-0.955,0.257-1.911,0.385-2.866
			C438.874,72.67,438.384,70.856,437.408,69.174z"/>
		<path style="fill:#746260;" d="M429.682,92.29c-0.156-0.556-0.437-1.038-0.844-1.447c-0.221-0.171-0.443-0.342-0.664-0.513
			c-0.512-0.297-1.063-0.446-1.655-0.448c-0.452-0.017-0.873,0.077-1.264,0.283c-0.407,0.132-0.759,0.358-1.056,0.678
			c-0.32,0.297-0.546,0.649-0.678,1.055c-0.205,0.391-0.299,0.812-0.283,1.264c0.039,0.291,0.078,0.581,0.117,0.872
			c0.156,0.556,0.437,1.038,0.844,1.447c0.221,0.171,0.443,0.342,0.664,0.513c0.511,0.297,1.063,0.446,1.655,0.448
			c0.452,0.017,0.873-0.077,1.264-0.282c0.407-0.132,0.758-0.358,1.055-0.678c0.32-0.297,0.546-0.649,0.678-1.056
			c0.205-0.391,0.299-0.812,0.282-1.264C429.76,92.871,429.721,92.58,429.682,92.29z"/>
		<path style="fill:#746260;" d="M449.332,92.853c-0.325-1.159-0.912-2.166-1.76-3.02c-0.462-0.357-0.923-0.713-1.385-1.07
			c-1.067-0.619-2.219-0.931-3.454-0.934c-0.942-0.035-1.821,0.161-2.637,0.59c-0.848,0.276-1.583,0.748-2.202,1.415
			c-0.667,0.62-1.139,1.354-1.415,2.202c-0.428,0.816-0.625,1.694-0.589,2.637l0.245,1.819c0.325,1.159,0.912,2.166,1.76,3.02
			c0.462,0.357,0.923,0.713,1.385,1.07c1.068,0.619,2.219,0.931,3.454,0.935c0.942,0.035,1.821-0.161,2.637-0.59
			c0.848-0.276,1.583-0.748,2.202-1.415c0.667-0.62,1.139-1.354,1.415-2.202c0.428-0.816,0.625-1.694,0.589-2.637
			C449.495,94.066,449.413,93.459,449.332,92.853z"/>
		<path style="fill:#746260;" d="M436.051,105.635c-0.226-0.804-0.633-1.503-1.221-2.095c-0.536-0.532-1.163-0.908-1.873-1.144
			c-0.01-0.003-0.02-0.008-0.031-0.011c-0.065-0.021-0.125-0.048-0.191-0.067c-0.384-0.103-0.769-0.153-1.153-0.162
			c-0.496-0.052-0.991-0.003-1.487,0.153l-1.147,0.484c-0.722,0.427-1.296,1.001-1.723,1.723c-0.167,0.381-0.329,0.765-0.486,1.151
			c-0.228,0.848-0.228,1.696,0,2.545c0,0.002,0.001,0.003,0.001,0.005c0.228,0.813,0.64,1.52,1.235,2.119
			c0.435,0.468,0.95,0.799,1.546,0.993c0.572,0.3,1.189,0.438,1.85,0.414c0.867-0.003,1.675-0.221,2.424-0.656
			c0.175-0.108,0.495-0.38,0.509-0.391c0.687-0.531,0.336-0.225,0.504-0.395c0.046-0.047,0.723-0.926,0.753-0.978
			c0.044-0.075,0.467-1.08,0.489-1.164C436.278,107.318,436.278,106.477,436.051,105.635z"/>
	</g>
	<g>
		<!-- <path style="fill:#EAC5C6;" d="M263.265,119.448h-65.59c-6.6,0-12-5.4-12-12V68.468c0-6.6,5.4-12,12-12h65.59c6.6,0,12,5.4,12,12
			v38.979C275.265,114.048,269.865,119.448,263.265,119.448z"/> -->
		<path style="fill:#FFFFFF;" d="M205.063,86.983c-0.244-0.87-0.684-1.626-1.321-2.266c-0.347-0.268-0.693-0.535-1.04-0.803
			c-0.801-0.465-1.665-0.698-2.592-0.701c-0.707-0.027-1.367,0.121-1.979,0.442c-0.637,0.207-1.188,0.561-1.653,1.062
			c-0.501,0.465-0.855,1.016-1.062,1.653c-0.322,0.612-0.469,1.272-0.442,1.979l0.184,1.365c0.244,0.87,0.684,1.626,1.321,2.267
			c0.346,0.268,0.693,0.535,1.04,0.803c0.801,0.465,1.665,0.698,2.592,0.701c0.707,0.027,1.367-0.121,1.979-0.442
			c0.637-0.207,1.188-0.561,1.653-1.062c0.501-0.465,0.855-1.016,1.062-1.653c0.322-0.612,0.469-1.272,0.442-1.979L205.063,86.983z"
			/>
		<path style="fill:#FFFFFF;" d="M224.768,86.983c-0.244-0.87-0.684-1.626-1.321-2.266c-0.346-0.268-0.693-0.535-1.04-0.803
			c-0.801-0.465-1.665-0.698-2.592-0.701c-0.707-0.027-1.367,0.121-1.979,0.442c-0.637,0.207-1.188,0.561-1.653,1.062
			c-0.501,0.465-0.855,1.016-1.062,1.653c-0.322,0.612-0.469,1.272-0.442,1.979l0.183,1.365c0.244,0.87,0.684,1.626,1.321,2.267
			c0.347,0.268,0.693,0.535,1.04,0.803c0.801,0.465,1.665,0.698,2.592,0.701c0.707,0.027,1.367-0.121,1.979-0.442
			c0.637-0.207,1.188-0.561,1.653-1.062c0.501-0.465,0.855-1.016,1.062-1.653c0.322-0.612,0.469-1.272,0.442-1.979L224.768,86.983z"
			/>
		<path style="fill:#FFFFFF;" d="M244.473,86.983c-0.244-0.87-0.684-1.626-1.321-2.266c-0.346-0.268-0.693-0.535-1.039-0.803
			c-0.801-0.465-1.665-0.698-2.592-0.701c-0.707-0.027-1.367,0.121-1.979,0.442c-0.637,0.207-1.188,0.561-1.653,1.062
			c-0.501,0.465-0.855,1.016-1.062,1.653c-0.322,0.612-0.469,1.272-0.442,1.979l0.184,1.365c0.244,0.87,0.684,1.626,1.321,2.267
			c0.346,0.268,0.693,0.535,1.039,0.803c0.801,0.465,1.665,0.698,2.592,0.701c0.707,0.027,1.367-0.121,1.979-0.442
			c0.637-0.207,1.188-0.561,1.653-1.062c0.501-0.465,0.855-1.016,1.062-1.653c0.322-0.612,0.469-1.272,0.442-1.979L244.473,86.983z"
			/>
		<path style="fill:#FFFFFF;" d="M264.178,86.983c-0.244-0.87-0.684-1.626-1.321-2.266c-0.346-0.268-0.693-0.535-1.039-0.803
			c-0.801-0.465-1.665-0.698-2.592-0.701c-0.707-0.027-1.367,0.121-1.979,0.442c-0.637,0.207-1.188,0.561-1.653,1.062
			c-0.501,0.465-0.855,1.016-1.062,1.653c-0.322,0.612-0.469,1.272-0.442,1.979l0.184,1.365c0.244,0.87,0.684,1.626,1.321,2.267
			c0.346,0.268,0.693,0.535,1.04,0.803c0.801,0.465,1.665,0.698,2.592,0.701c0.707,0.027,1.367-0.121,1.979-0.442
			c0.637-0.207,1.188-0.561,1.653-1.062c0.501-0.465,0.855-1.016,1.062-1.653c0.322-0.612,0.469-1.272,0.442-1.979L264.178,86.983z"
			/>
		<!-- <path style="fill:#EAC5C6;" d="M280.358,115.62l-0.358-0.713c-0.086-0.267-0.194-0.529-0.354-0.773
			c-0.063-0.097-0.12-0.198-0.183-0.295c-0.281-0.56-0.563-1.119-0.844-1.679c-1.181-2.35-2.356-4.703-3.548-7.047
			c-0.878-1.726-3.176-2.302-4.859-1.592c-1.648,0.696-2.937,2.768-2.253,4.59c0.221,0.589,0.465,1.169,0.704,1.75
			c-0.14,0.245-0.267,0.509-0.384,0.797c-0.78,1.908,0.384,3.98,1.701,5.447c-0.115-0.016-0.229-0.032-0.344-0.049
			c-0.732-0.107-1.46-0.217-2.198-0.277c-1.188-0.096-2.31-0.176-3.501-0.12c-1.137,0.053-1.474,1.452-0.563,2.077
			c2.08,1.426,4.451,2.273,6.829,3.08c1.145,0.389,2.295,0.764,3.449,1.125c0.576,0.18,1.153,0.356,1.731,0.529
			c0.267,0.08,0.534,0.156,0.801,0.237c0.107,0.029,0.211,0.066,0.317,0.1c0.119,0.059,0.248,0.105,0.373,0.153
			c0.426,0.231,0.893,0.341,1.368,0.347c0.035,0.005,0.064,0.014,0.099,0.019c-0.001-0.006-0.001-0.011-0.002-0.017
			c1.108-0.02,2.215-0.598,2.773-1.573C282.328,119.611,281.34,117.573,280.358,115.62z"/> -->
	</g>
</g>
</svg>
