<?xml version="1.0" encoding="utf-8"?>
<!-- Generator: Adobe Illustrator 27.5.0, SVG Export Plug-In . SVG Version: 6.00 Build 0)  -->
<svg version="1.1" id="Layer_1" xmlns="http://www.w3.org/2000/svg" xmlns:xlink="http://www.w3.org/1999/xlink" x="0px" y="0px"
	 viewBox="0 0 2048 2048" style="enable-background:new 0 0 2048 2048;" xml:space="preserve">
<rect id="background" style="fill:#F5FAFF;" width="2048" height="2048"/>
<path id="wall" style="fill:#E6EFF2;" d="M1757.259,1613.015c85.859-127.995,135.945-282.001,135.945-447.705
	c0-444.415-360.27-804.684-804.684-804.684S283.836,720.895,283.836,1165.31c0,166.656,50.663,321.478,137.428,449.907
	L1757.259,1613.015z"/>
<g id="plant02">
	<g>
		<g>
			<path style="fill:#8BD0CA;" d="M955.027,855.997c-37.167,2.065-30.973,0-92.917-6.195c-61.945-6.195-70.204,49.556-92.917,59.88
				c-22.713,10.324-41.297,26.843-69.172,60.772c-24.032,29.251-12.219,91.766-8.503,108.462
				c-25.584,51.346-50.174,112.449-58.604,171.463c-4.722,33.053-16.497,76.023-30.211,118.903
				c13.422-76.101,33.4-190.063,37.438-216.982c3.621-24.14,15.004-82.141,27.96-133.183l0.001,0.002l0.013-0.057
				c7.736-30.468,16.03-58.441,23.57-75.249c71.211-23.217,95.059-97.108,95.059-97.108c55.75-4.13,55.75-39.232,74.334-37.167
				c18.583,2.065,33.037-10.324,49.556-16.519c16.519-6.195,30.972,2.065,61.945,0c30.973-2.065,24.778-8.259,40.884-6.344
				c16.106,1.916,34.483,13.571,34.483,13.571c-20.648-49.556-119.76-53.686-173.047-47.509
				c-53.287,6.177-47.89,39.25-93.275,53.703c-45.385,14.454-111.542,72.269-128.061,109.436
				c-11.627,26.162,0.312,66.618,8.406,88.3c-0.764,2.886-1.513,5.789-2.211,8.747c-35.102,148.668-51.621,216.807-51.621,216.807
				s-9.523,44.491-22.621,92.636c-0.678-9.163-1.69-20.864-3.189-35.854c-6.195-61.945,24.778-274.622,30.972-311.789
				c2.137-12.824,8.454-36.464,15.811-61.93c0.014-0.022,50.268-78.481,79.171-95.719c28.908-17.24,43.361-67.418,66.075-94.261
				c20.874-24.669,22.58-19.703,43.553-28.351c8.483,6.414,20.457,13.794,31.814,14.93c20.648,2.065,23.336-12.389,42.64,0
				c19.305,12.389,6.916,18.583,31.694,20.648c24.778,2.065,66.075,14.454,66.075,14.454s-22.713-28.908-33.037-43.361
				c-10.324-14.454-6.194-18.583-24.778-24.778c-18.583-6.195-2.934-34.37-63.412-28.542c-19.678,0.122-49.485-0.355-68.919-3.762
				c-31.154-5.461-61.763,21.98-91.703,27.038c-29.94,5.058-38.199,42.433-59.559,69.847
				c-21.359,27.414-11.678,36.596-44.174,65.504c-32.496,28.908-3.676,64.521-3.676,64.521
				c-5.034,14.664,4.362,41.473,10.607,56.557c-17.248,73.699-36.542,180.263-47.382,242.481
				c-4.852-113.377-9.025-251.762-4.713-325.644c9.265-13.355,27.857-38.686,45.153-53.392
				c24.276-20.639,19.086-22.722,37.68-55.817c18.594-33.095,24.768-63.952,57.805-88.121c33.037-24.169,28.908-60.49,51.621-70.814
				c22.713-10.324,62.977-48.507,62.977-48.507c19.616-1.016,60.279-16.836,60.279-16.836c13.82,2.797,59.482-20.348,59.482-20.348
				c-51.621-22.713-92.917,4.13-148.668,4.13c-55.75,0-97.047,41.297-123.89,53.686c-26.843,12.389-47.491,43.361-51.621,57.815
				c-1.552,5.433-4.565,9.992-9.584,15.1c2.56-24.69-4.212-47.5-2.805-90.238c2.065-62.748,0-52.882,0-92.114
				s-19.574-53.465-19.574-53.465c-15.444-5.974-54.76,22.493-69.214,51.4c-14.454,28.908-28.908,78.464-38.305,127.541
				c-9.397,49.077,27.981,54.164,11.462,91.331c-4.239,9.537-6.975,20.423-8.711,31.338c-9.179-29.551-24.718-45.042-43.003-67.066
				c-22.805-27.469-22.621-24.152-52.501-66.481c-29.881-42.329-85.75-50.588-127.382-72.103c-41.632-21.514-77.845,0-77.845,0
				s55.467,25.644,76.115,54.551c20.648,28.908,14.454,35.102,35.102,80.528c20.648,45.426,43.361,43.362,59.88,88.788
				c16.519,45.426,47.491,68.139,64.01,90.853c9.717,13.362,10.147,31.729,12.197,53.342c-5.989-5.906-14.928-12.001-30.78-20.305
				c-43.361-22.713-47.491-81.007-110.469-90.06c-62.977-9.052-110.468-2.858-129.052,21.92s-28.908,16.519-51.621,39.232
				c-22.713,22.713-36.094,66.476-36.094,66.476s22.673-34.471,53.645-34.471c30.972,0,84.658,2.065,105.306,2.065
				c20.648,0,39.232,8.259,66.075,10.324c26.843,2.065,31.103,5.151,44.459,26.321c13.356,21.17,54.653,35.624,54.653,35.624
				l44.156,58.875c20.819,71.061,81.525,280.185,90.057,331.378c5.625,33.75,6.351,57.672,8.848,73.144l-0.094,2.053h-2.078
				c-24.275-69.543-89.691-241.879-114.04-305.815c0.001,0,12.917-5.816,16.52-27.986c0.655-3.358,1.008-7.003,0.911-10.948
				c0.006-0.465,0.021-0.917,0.02-1.392c-0.043-15.231-5.482-28.571-13.59-38.565c-8.113-10.999-19.1-17.572-31.452-18.746
				c-0.787-0.094-1.573-0.169-2.357-0.209c-22.713-0.876-22.671-19.077-53.665-22.366c-30.993-3.288-70.225-36.326-95.003-13.613
				c-24.778,22.713-39.232,6.195-51.621,30.973c-12.389,24.778-27.552,3.461-39.586,36.832
				c-12.035,33.372-51.266,43.696-34.748,82.928c0,0,19.616-34.07,50.588-38.199c30.973-4.13,24.778-22.713,47.491-18.583
				c22.713,4.13,57.815,2.772,72.269-14.1c14.454-16.872,35.02,19.626,69.131-12.045c0,0,6.348,2.561,15.15,7.769
				c8.091,6.626,17.234,16.605,25.473,26.463l120.827,337.603h-83.467c-9.391,0-16.448,8.57-14.647,17.787l43.149,220.722h219.074
				l46.401-220.512c1.952-9.276-5.125-17.997-14.604-17.997h-86.357c19.746-91.724,51.204-222.96,63.545-255.869
				c10.46-27.893,24.845-55.786,38-78.893c0.009-0.008,20.855-19.189,56.293-30.497c35.445-11.31,67.796-58.894,67.796-58.894
				c53.686,0,30.972-30.973,66.075-30.973c35.102,0,26.843-22.713,78.464-28.908c51.621-6.195,75.366,40.264,75.366,40.264
				C1064.463,851.867,992.194,853.932,955.027,855.997z M575.889,1355.975c-0.098,0.324-0.196,0.649-0.294,0.973
				c-0.058-0.296-0.125-0.611-0.185-0.913L575.889,1355.975z M528.517,876.269c6.146,9.317,12.428,16.62,17.153,21.576
				c-2.457,64.4-2.571,146.009-2.576,181.498c-12.258-57.727-24.469-102.717-33.937-134.122
				C521.263,930.049,527.407,901.51,528.517,876.269z M507.991,1166.754c-13.859-37.419-36.089-107.393-53.58-159.978l0,0
				c0,0,5.137-39.635,2.094-74.892c15.149,11.109,31.949,16.525,40.369,18.716c10.377,42.824,46.22,262.384,46.22,262.384
				c0,18.944,0,36.961,0,51.829C529.16,1229.606,524.538,1211.433,507.991,1166.754z"/>
		</g>
		<g>
			<path style="fill:#F5FAFF;" d="M502.368,947.94c-0.972,0-1.834-0.694-2.014-1.684c-0.718-3.986-73.908-399.218-250.466-462.934
				c-1.064-0.384-1.614-1.558-1.23-2.622c0.382-1.064,1.554-1.62,2.622-1.23c51.65,18.64,127.322,78.492,194.512,257.778
				c40.082,106.952,58.414,207.28,58.594,208.28c0.2,1.114-0.54,2.178-1.652,2.38C502.61,947.93,502.488,947.94,502.368,947.94z"/>
		</g>
		<g>
			<path style="fill:#F5FAFF;" d="M440.212,967.704c-0.798,0-1.556-0.47-1.886-1.25c-0.558-1.318-56.938-132.106-166.376-168.246
				c-56.868-18.772-118.312-9.064-182.626,28.874c-0.976,0.568-2.23,0.248-2.804-0.724c-0.574-0.974-0.25-2.23,0.724-2.804
				c65.388-38.568,127.978-48.402,186.01-29.228c111.212,36.738,168.282,169.2,168.844,170.532c0.44,1.042-0.048,2.244-1.088,2.684
				C440.75,967.652,440.478,967.704,440.212,967.704z"/>
		</g>
		<g>
			<path style="fill:#F5FAFF;" d="M545.11,861.67l-4.036-0.7c0.298-1.722,30.734-173.206,111.372-260.756
				c80.712-87.63,237.306-112.858,238.88-113.102l0.628,4.048c-1.558,0.242-156.762,25.262-236.496,111.83
				C575.644,689.646,545.406,859.96,545.11,861.67z"/>
		</g>
		<g>
			<path style="fill:#F5FAFF;" d="M527.41,780.408c-1.03,0-1.916-0.774-2.034-1.82c-17.028-152.496,35.346-374.452,35.878-376.676
				c0.264-1.098,1.374-1.774,2.468-1.516c1.1,0.262,1.778,1.368,1.516,2.468c-0.53,2.216-52.74,223.488-35.79,375.268
				c0.124,1.124-0.684,2.138-1.808,2.264C527.562,780.404,527.486,780.408,527.41,780.408z"/>
		</g>
		<g>
			<path style="fill:#F5FAFF;" d="M617.212,914.744c-0.258,0-0.518-0.048-0.772-0.15c-1.048-0.428-1.552-1.622-1.126-2.67
				c2.036-5.004,50.176-122.842,78.7-147.708c9.178-8.002,18.108-21.286,27.562-35.352c20.038-29.808,42.75-63.596,79.436-68.118
				c52.944-6.51,122.244,24.108,158.662,57.49c0.834,0.764,0.89,2.06,0.126,2.894c-0.766,0.832-2.06,0.89-2.894,0.126
				C921.172,688.5,853.278,658.45,801.512,664.81c-34.83,4.296-56.986,37.258-76.536,66.34c-9.61,14.296-18.686,27.798-28.27,36.154
				c-27.792,24.228-77.102,144.948-77.596,146.164C618.786,914.262,618.02,914.744,617.212,914.744z"/>
		</g>
		<g>
			<path style="fill:#F5FAFF;" d="M111.604,1061.676c-0.402,0-0.808-0.12-1.164-0.364c-0.93-0.644-1.162-1.92-0.518-2.848
				c0.702-1.016,71.932-101.524,222.21-102.59c0.004,0,0.01,0,0.014,0c1.124,0,2.04,0.908,2.048,2.034
				c0.008,1.13-0.902,2.054-2.034,2.062c-77.364,0.548-132.738,27.916-165.566,50.78c-35.606,24.794-53.132,49.794-53.304,50.042
				C112.892,1061.368,112.254,1061.676,111.604,1061.676z"/>
		</g>
		<g>
			<path style="fill:#F5FAFF;" d="M696.82,1053.708c-0.256,0-0.514-0.048-0.766-0.148c-1.048-0.424-1.556-1.616-1.134-2.664
				c0.24-0.596,24.59-59.826,79.728-94.288c16.298-10.186,28.424-21.482,40.15-32.406c28.198-26.27,54.832-51.082,133.298-57.78
				c1.14-0.13,2.118,0.738,2.214,1.866c0.096,1.126-0.738,2.118-1.866,2.214c-77.058,6.58-103.188,30.924-130.854,56.696
				c-11.868,11.056-24.14,22.488-40.77,32.882c-53.978,33.738-77.866,91.764-78.1,92.348
				C698.398,1053.224,697.63,1053.708,696.82,1053.708z"/>
		</g>
	</g>
	<g>
		<path style="fill:#E6EFF2;" d="M691.656,936.928l-3.48-2.16c1.776-2.86,43.906-70.372,80.89-97.636
			c48.902-36.052,123.394-82.706,205.286-71.774l-0.544,4.06c-80.388-10.744-153.98,35.382-202.31,71.01
			C735.142,867.228,692.086,936.234,691.656,936.928z"/>
	</g>
</g>
<path style="fill:#1F191A;" d="M1040.791,759.607"/>
<g id="element">
	<g>
		<g>
			<path style="fill:#BBE0F8;" d="M1451.685,273.171h-318.079c-16.067,0-29.091,13.025-29.091,29.091v134.072
				c0,16.066,13.024,29.091,29.091,29.091h29.492v72.443l77.059-72.443h211.527c16.067,0,29.091-13.025,29.091-29.091V302.262
				C1480.776,286.196,1467.751,273.171,1451.685,273.171z"/>
			<g>
				<path style="fill:#007CF4;" d="M1432.344,345.237h-279.396c-5.471,0-9.906-4.435-9.906-9.906v0c0-5.471,4.435-9.906,9.906-9.906
					h279.396c5.471,0,9.906,4.435,9.906,9.906v0C1442.25,340.802,1437.815,345.237,1432.344,345.237z"/>
				<path style="fill:#007CF4;" d="M1432.344,378.766h-279.396c-5.471,0-9.906-4.435-9.906-9.906l0,0
					c0-5.471,4.435-9.906,9.906-9.906h279.396c5.471,0,9.906,4.435,9.906,9.906l0,0
					C1442.25,374.331,1437.815,378.766,1432.344,378.766z"/>
				<path style="fill:#007CF4;" d="M1332.139,412.295h-179.192c-5.471,0-9.906-4.435-9.906-9.906l0,0
					c0-5.471,4.435-9.906,9.906-9.906h179.192c5.471,0,9.906,4.435,9.906,9.906l0,0
					C1342.046,407.859,1337.61,412.295,1332.139,412.295z"/>
			</g>
		</g>
		<g>
			<circle style="fill:#007CF4;" cx="1115.947" cy="278.435" r="37.603"/>
			<g>
				<path style="fill:#F5FAFF;" d="M1111.724,296.633c-0.927,0-1.822-0.353-2.499-0.989l-16.365-15.37
					c-1.469-1.381-1.543-3.691-0.16-5.16c1.38-1.469,3.686-1.538,5.158-0.162l13.574,12.749l22.325-26.181
					c1.305-1.535,3.618-1.716,5.144-0.408c1.536,1.306,1.718,3.611,0.41,5.145l-24.809,29.095c-0.649,0.759-1.579,1.221-2.574,1.276
					C1111.859,296.631,1111.792,296.633,1111.724,296.633z"/>
			</g>
		</g>
	</g>
	<g>
		<g>
			<path style="fill:#BBE0F8;" d="M1850.694,573.861h-354.013c-17.882,0-32.377,14.496-32.377,32.377v149.218
				c0,17.881,14.496,32.377,32.377,32.377h32.824v80.628l85.765-80.628h235.424c17.882,0,32.377-14.496,32.377-32.377V606.239
				C1883.071,588.357,1868.575,573.861,1850.694,573.861z"/>
			<g>
				<path style="fill:#007CF4;" d="M1829.167,654.068h-310.96c-6.089,0-11.026-4.936-11.026-11.025v0
					c0-6.089,4.936-11.025,11.026-11.025h310.96c6.089,0,11.025,4.936,11.025,11.025v0
					C1840.193,649.132,1835.256,654.068,1829.167,654.068z"/>
				<path style="fill:#007CF4;" d="M1829.167,691.385h-310.96c-6.089,0-11.026-4.936-11.026-11.025l0,0
					c0-6.089,4.936-11.025,11.026-11.025h310.96c6.089,0,11.025,4.936,11.025,11.025l0,0
					C1840.193,686.449,1835.256,691.385,1829.167,691.385z"/>
				<path style="fill:#007CF4;" d="M1717.643,728.701h-199.436c-6.089,0-11.026-4.936-11.026-11.025v0
					c0-6.089,4.936-11.025,11.026-11.025h199.436c6.089,0,11.026,4.936,11.026,11.025v0
					C1728.668,723.765,1723.732,728.701,1717.643,728.701z"/>
			</g>
		</g>
		<g>
			<g>
				
					<ellipse transform="matrix(0.1602 -0.9871 0.9871 0.1602 668.1999 1944.8134)" style="fill:#FF9E3E;" cx="1477.027" cy="579.719" rx="41.851" ry="41.851"/>
			</g>
			<path style="fill:#F5FAFF;" d="M1502.36,597.482l-18.452-17.269l17.268-18.449c1.544-1.65,1.46-4.242-0.192-5.788
				c-1.656-1.548-4.244-1.464-5.792,0.192l-17.265,18.446l-18.447-17.265c-1.656-1.546-4.244-1.464-5.792,0.192
				c-1.544,1.65-1.46,4.242,0.192,5.788l18.448,17.266l-17.268,18.45c-1.544,1.65-1.46,4.242,0.192,5.788
				c0.792,0.74,1.796,1.106,2.8,1.106c1.092,0,2.184-0.436,2.992-1.298l17.266-18.448l18.45,17.267
				c0.792,0.74,1.796,1.106,2.8,1.106c1.092,0,2.184-0.436,2.992-1.298C1504.096,601.62,1504.012,599.028,1502.36,597.482z"/>
		</g>
	</g>
</g>
<g id="plant01">
	<g>
		<path style="fill:#8BD0CA;" d="M1781.844,1394.963l-1.354-64.59c42.004,20.722,93.102-42.958,93.102-42.958
			c-62.3-2.13-85.255,19.175-93.338,31.71l-1.555-74.179c36.077,19.469,80.65-36.057,80.65-36.057
			c-56.325-1.926-74.999,18.589-80.8,28.887l-0.755-35.989c25.71,6.401,45.953-35.09,45.953-35.09
			c-30.849,5.87-42.057,18.137-46.138,26.3l-0.458-21.852c4.495-1.231,20.293-8.063,22.989-43.657c0,0-16.571,10.536-23.398,24.147
			l-1.401-66.803c-0.395-18.837-2.575-18.837-2.969,0l-1.549,73.867c-4.233-6.33-11.689-13.616-24.706-20.966
			c0,0,4.536,35.156,24.307,39.983l-0.484,23.071c-7.979-9.005-25.813-20.31-64.879-18.975c0,0,34.656,43.178,64.592,32.683
			l-1.316,62.781c-9.6-10.422-30.538-23.102-75.331-21.571c0,0,40.095,49.94,74.978,38.407l-1.092,52.068
			c-11.306-12.201-35.877-26.976-88.246-25.185c0,0,46.944,58.468,87.829,45.075l-0.667,31.799
			c-15.91-4.971-50.063-6.61-101.176,37.704c0,0,70.478,15.332,100.703-15.134l-2.11,100.629h21.262l-2.345-111.839
			c41.68,18.302,91.448-43.681,91.448-43.681C1814.955,1363.543,1791.179,1382.298,1781.844,1394.963z"/>
		<g>
			<path style="fill:#72C4F4;" d="M1792.656,1610.475h-37.74c-10.924,0-19.78-8.856-19.78-19.78v-115.873
				c0-4.222,3.422-7.644,7.644-7.644h62.012c4.222,0,7.644,3.422,7.644,7.644v115.873
				C1812.436,1601.619,1803.58,1610.475,1792.656,1610.475z"/>
			<g>
				<g>
					<rect x="1735.134" y="1584.083" style="fill:#F5FAFF;" width="77.302" height="3.208"/>
				</g>
				<g>
					<rect x="1735.134" y="1578.246" style="fill:#F5FAFF;" width="77.302" height="3.208"/>
				</g>
				<g>
					<rect x="1735.134" y="1572.275" style="fill:#F5FAFF;" width="77.302" height="3.208"/>
				</g>
			</g>
		</g>
	</g>
	<path style="fill:#F5FAFF;" d="M1778.891,1242.002c-0.408,0-0.794-0.246-0.953-0.648c-0.207-0.526,0.052-1.121,0.577-1.329
		l75.314-29.691c0.528-0.204,1.121,0.052,1.329,0.577c0.207,0.526-0.052,1.121-0.577,1.329l-75.314,29.691
		C1779.143,1241.979,1779.016,1242.002,1778.891,1242.002z"/>
	<path style="fill:#F5FAFF;" d="M1770.521,1209.35c-0.131,0-0.263-0.025-0.391-0.078l-59.694-24.631
		c-0.522-0.216-0.771-0.814-0.556-1.337s0.815-0.771,1.337-0.556l59.694,24.631c0.522,0.216,0.771,0.814,0.556,1.337
		C1771.305,1209.11,1770.924,1209.35,1770.521,1209.35z"/>
	<path style="fill:#F5FAFF;" d="M1769.112,1286.996c-0.129,0-0.26-0.024-0.386-0.076l-68.432-27.86
		c-0.524-0.213-0.776-0.811-0.563-1.334c0.213-0.524,0.814-0.775,1.334-0.563l68.432,27.86c0.524,0.213,0.776,0.811,0.563,1.334
		C1769.899,1286.755,1769.516,1286.996,1769.112,1286.996z"/>
	<path style="fill:#F5FAFF;" d="M1780.873,1326.151c-0.401,0-0.783-0.238-0.946-0.633c-0.216-0.523,0.032-1.122,0.555-1.338
		l84.711-35.014c0.521-0.215,1.122,0.031,1.338,0.555s-0.032,1.122-0.555,1.338l-84.711,35.014
		C1781.137,1326.126,1781.004,1326.151,1780.873,1326.151z"/>
	<path style="fill:#F5FAFF;" d="M1769.112,1357.776c-0.125,0-0.253-0.023-0.376-0.072l-80.104-31.625
		c-0.526-0.207-0.784-0.802-0.576-1.328c0.207-0.525,0.805-0.784,1.328-0.576l80.104,31.625c0.526,0.207,0.784,0.802,0.576,1.328
		C1769.906,1357.53,1769.521,1357.776,1769.112,1357.776z"/>
	<path style="fill:#F5FAFF;" d="M1780.873,1404.085c-0.406,0-0.791-0.244-0.951-0.645c-0.21-0.524,0.046-1.121,0.571-1.331
		l84.711-33.884c0.52-0.21,1.12,0.046,1.331,0.571c0.21,0.524-0.046,1.121-0.571,1.331l-84.711,33.884
		C1781.129,1404.062,1781,1404.085,1780.873,1404.085z"/>
	<path style="fill:#F5FAFF;" d="M1674.325,1433.828c-0.449,0-0.861-0.299-0.986-0.753c-0.149-0.546,0.171-1.109,0.716-1.259
		l91.863-25.225c0.546-0.151,1.109,0.171,1.259,0.716c0.149,0.546-0.171,1.109-0.716,1.259l-91.863,25.225
		C1674.507,1433.816,1674.415,1433.828,1674.325,1433.828z"/>
	<path style="fill:#F5FAFF;" d="M1778.046,1198.262c-0.329,0-0.651-0.158-0.85-0.451c-0.316-0.469-0.193-1.105,0.275-1.422
		l41.407-27.954c0.469-0.317,1.105-0.193,1.422,0.275s0.193,1.105-0.275,1.422l-41.407,27.954
		C1778.442,1198.205,1778.243,1198.262,1778.046,1198.262z"/>
	<path style="fill:#F5FAFF;" d="M1771.319,1172.55c-0.31,0-0.615-0.14-0.816-0.405l-22.572-29.747
		c-0.342-0.45-0.254-1.093,0.196-1.435c0.451-0.343,1.094-0.254,1.435,0.196l22.572,29.747c0.342,0.45,0.254,1.093-0.196,1.435
		C1771.752,1172.481,1771.535,1172.55,1771.319,1172.55z"/>
	<path style="fill:#F5FAFF;" d="M1776.998,1165.823c-0.191,0-0.386-0.054-0.558-0.166c-0.474-0.309-0.608-0.943-0.3-1.417
		l20.928-32.139c0.309-0.475,0.944-0.609,1.417-0.3c0.474,0.309,0.608,0.943,0.3,1.417l-20.928,32.139
		C1777.661,1165.659,1777.333,1165.823,1776.998,1165.823z"/>
</g>
<path style="fill:#72C4F4;" d="M1478.914,1051.522v12.092h-20.766v48.3h20.902c0.712,11.771,10.39,21.125,22.341,21.125h16.473
	c12.413,0,22.477-10.063,22.477-22.477v-59.04H1478.914z M1462.816,1068.28h16.099v38.966h-16.099V1068.28z"/>
<g id="woman_and_chair">
	<g>
		<path style="fill:#BBE0F8;" d="M876.878,902.794h142.057c12.074,0,22.381,8.725,24.373,20.634l58.14,347.573H922.131
			l-74.534-327.912C842.937,922.585,857.318,902.794,876.878,902.794z"/>
		<path style="fill:#007CF4;" d="M933.397,1227.168c-0.794,0-1.512-0.543-1.702-1.349l-69.968-297.27
			c-0.221-0.941,0.362-1.883,1.303-2.104c0.94-0.222,1.883,0.362,2.104,1.303l69.968,297.269c0.221,0.941-0.362,1.884-1.303,2.104
			C933.665,1227.153,933.53,1227.168,933.397,1227.168z"/>
		<path style="fill:#72C4F4;" d="M1042.884,1290.588c-40.963,0-77.269-26.946-89.669-66.72
			c-31.43-100.809-78.893-300.785-9.888-300.785c21.477,0,38.192-0.501,51.203-1.282c26.937-1.618,50.887,16.973,56.183,43.434
			l65.122,325.354H1042.884z"/>
		<rect x="1056.209" y="1339.654" style="fill:#007CF4;" width="14.658" height="255.772"/>
		<rect x="1045.253" y="1276.919" style="fill:#BBE0F8;" width="38.652" height="85.866"/>
		<path style="fill:#007CF4;" d="M1187.746,1296.366H938.64c-10.521,0-19.05-8.529-19.05-19.05l0,0
			c0-9.227,7.48-16.706,16.706-16.706h251.449V1296.366z"/>
		<path style="fill:#BBE0F8;" d="M1191.247,1611.889H935.828v-6.273c0-14.72,11.933-26.654,26.654-26.654h202.112
			c14.72,0,26.653,11.933,26.653,26.654V1611.889z"/>
	</g>
	<g>
		<path d="M1109.25,785.245c0,0-45-29.259-78.614,32.855c-33.615,62.113-73.457,57.136-90.451,82.502
			c-22.464,33.53-0.061,75.627,133.254,79.055C1189.201,982.633,1208.069,785.245,1109.25,785.245z"/>
		<g>
			<linearGradient id="SVGID_1_" gradientUnits="userSpaceOnUse" x1="1341.4355" y1="1115.562" x2="1109.9753" y2="1070.556">
				<stop  offset="0.1634" style="stop-color:#FFACAC"/>
				<stop  offset="0.2975" style="stop-color:#FEA5A5"/>
				<stop  offset="0.4918" style="stop-color:#FD9391"/>
				<stop  offset="0.7218" style="stop-color:#FB7672"/>
				<stop  offset="0.8101" style="stop-color:#FA6964"/>
			</linearGradient>
			<path style="fill:url(#SVGID_1_);" d="M1127.802,1043.392l167.104,61.819v22.557l-130.082-16.022
				c-21.141-2.604-37.022-20.562-37.022-41.862V1043.392z"/>
			
				<linearGradient id="SVGID_00000054983574744383906840000008534873377384059315_" gradientUnits="userSpaceOnUse" x1="1070.4318" y1="1198.4761" x2="1069.6644" y2="1081.8269">
				<stop  offset="0.3434" style="stop-color:#FFACAA"/>
				<stop  offset="0.4539" style="stop-color:#FFA6A5"/>
				<stop  offset="0.5945" style="stop-color:#FE9795"/>
				<stop  offset="0.7505" style="stop-color:#FC7F7B"/>
				<stop  offset="0.8493" style="stop-color:#FB6B67"/>
			</linearGradient>
			<polygon style="fill:url(#SVGID_00000054983574744383906840000008534873377384059315_);" points="1000.713,1103.234 
				996.636,1175.453 1135.708,1175.453 1143.449,1103.234 			"/>
		</g>
		<g>
			
				<linearGradient id="SVGID_00000038407692515127653360000017065938040653103785_" gradientUnits="userSpaceOnUse" x1="1181.0876" y1="1641.6221" x2="1214.2555" y2="1435.9805">
				<stop  offset="0.3006" style="stop-color:#FFACAC"/>
				<stop  offset="0.3915" style="stop-color:#FEA5A5"/>
				<stop  offset="0.5231" style="stop-color:#FD9391"/>
				<stop  offset="0.679" style="stop-color:#FB7672"/>
				<stop  offset="0.7388" style="stop-color:#FA6964"/>
			</linearGradient>
			<path style="fill:url(#SVGID_00000038407692515127653360000017065938040653103785_);" d="M1188.218,1458.011l-2.7,32.748
				c0,0-23.179,6.95-14.483,21.109c8.696,14.159,18.636,19.203,18.038,35.722c-0.598,16.519,2.521,35.318,13.787,44.256
				c0,0-5.819,13.949,12.236,20.043l29.37-152.137L1188.218,1458.011z"/>
			<path style="fill:#050542;" d="M1189.485,1251.23l-30.159,222.454h90.039c0,0,112-260.192,32.941-317.29h-83.451
				L1189.485,1251.23z"/>
		</g>
		<g>
			<path style="fill:#F54552;" d="M1057.026,912.729c0,0-100.516-4.327-122.982,85.878l56.171,22.867v88.429
				c0,3.611,2.926,6.539,6.537,6.541l149.004,0.097c3.142,0.002,5.841-2.23,6.429-5.316l14.857-116.345
				c4.019-31.474-14.478-61.772-44.585-71.787C1106.272,917.709,1084.968,913.633,1057.026,912.729z"/>
			<path style="fill:#1F191A;" d="M989.483,1023.726c-0.089,0-0.18-0.012-0.271-0.038c-0.533-0.149-0.845-0.702-0.695-1.235
				l14.613-52.256c0.148-0.533,0.7-0.846,1.235-0.695c0.533,0.149,0.845,0.702,0.695,1.235l-14.613,52.256
				C990.325,1023.436,989.922,1023.726,989.483,1023.726z"/>
		</g>
		<g>
			
				<linearGradient id="SVGID_00000105413609100206758260000016671574868007703997_" gradientUnits="userSpaceOnUse" x1="942.9641" y1="1083.9656" x2="965.0502" y2="1013.3765">
				<stop  offset="0.2594" style="stop-color:#FFACAC"/>
				<stop  offset="0.7098" style="stop-color:#FC817D"/>
				<stop  offset="1" style="stop-color:#FA6964"/>
			</linearGradient>
			<path style="fill:url(#SVGID_00000105413609100206758260000016671574868007703997_);" d="M942.788,1002.166l-21.481,69.113
				l6.882,1.844c22.025,5.902,44.844-6.336,52.112-27.95l8.203-24.396L942.788,1002.166z"/>
			
				<linearGradient id="SVGID_00000001634813950276079120000014280390862723795876_" gradientUnits="userSpaceOnUse" x1="1102.3195" y1="1084.848" x2="889.8597" y2="1030.4979">
				<stop  offset="0.3006" style="stop-color:#FFACAC"/>
				<stop  offset="0.3915" style="stop-color:#FEA5A5"/>
				<stop  offset="0.5231" style="stop-color:#FD9391"/>
				<stop  offset="0.679" style="stop-color:#FB7672"/>
				<stop  offset="0.7388" style="stop-color:#FA6964"/>
			</linearGradient>
			<path style="fill:url(#SVGID_00000001634813950276079120000014280390862723795876_);" d="M1110.282,1028.867
				c-8.548-1.903-28.252,9.267-28.252,9.267l-21.352,3.612l-0.005-0.018l-122.68,16.768c-24.195,3.307-24.686,38.298-0.561,42.078
				c39.286,6.155,115.682-31.083,127.517-37.01c12.417,11.841,29.3-1.487,29.3-1.487l5.352,1.213l1.716,2.5
				c2.414,3.518,7.694,3.574,10.019-0.003c0.639-0.983,0.994-1.722,0.994-1.722c7.318-0.582,5.897-7.9,5.897-7.9
				c7.636-1.045,5.375-7.636,5.375-7.636C1135.641,1044.527,1118.831,1030.771,1110.282,1028.867z"/>
			<g>
				<path style="fill:#1F191A;" d="M1123.603,1049.553c-0.206,0-0.414-0.062-0.592-0.19l-12.796-9.088
					c-0.462-0.326-0.57-0.966-0.242-1.426c0.33-0.462,0.972-0.566,1.426-0.242l12.796,9.088c0.462,0.326,0.57,0.966,0.242,1.426
					C1124.239,1049.403,1123.923,1049.553,1123.603,1049.553z"/>
			</g>
			<g>
				<path style="fill:#1F191A;" d="M1118.227,1057.189c-0.242,0-0.486-0.086-0.68-0.258l-12.682-11.276
					c-0.424-0.376-0.462-1.024-0.086-1.446c0.378-0.424,1.022-0.462,1.446-0.086l12.682,11.276c0.424,0.376,0.462,1.024,0.086,1.446
					C1118.789,1057.073,1118.509,1057.189,1118.227,1057.189z"/>
			</g>
			<g>
				<path style="fill:#1F191A;" d="M1112.331,1065.089c-0.258,0-0.514-0.096-0.714-0.29l-11.708-11.384
					c-0.406-0.394-0.414-1.042-0.02-1.448c0.394-0.404,1.042-0.412,1.448-0.02l11.708,11.384c0.406,0.394,0.414,1.042,0.02,1.448
					C1112.865,1064.985,1112.597,1065.089,1112.331,1065.089z"/>
			</g>
		</g>
		<g>
			
				<linearGradient id="SVGID_00000114783074441726676300000000900455737756250012_" gradientUnits="userSpaceOnUse" x1="1063.0104" y1="940.4515" x2="1063.0104" y2="859.5092" gradientTransform="matrix(0.9841 0.1774 -0.1774 0.9841 195.3217 -157.9844)">
				<stop  offset="0.0416" style="stop-color:#FFACAC"/>
				<stop  offset="0.1983" style="stop-color:#FEA5A5"/>
				<stop  offset="0.4255" style="stop-color:#FD9391"/>
				<stop  offset="0.6944" style="stop-color:#FB7672"/>
				<stop  offset="0.7975" style="stop-color:#FA6964"/>
			</linearGradient>
			<path style="fill:url(#SVGID_00000114783074441726676300000000900455737756250012_);" d="M1077.526,939.833L1077.526,939.833
				c-13.521-2.437-21.62-17.556-17.306-32.304l16.844-34.158l30.043,5.871l-2.086,36.362
				C1103.915,930.93,1091.047,942.27,1077.526,939.833z"/>
			<g>
				
					<linearGradient id="SVGID_00000154425148342962994340000017169092303791514526_" gradientUnits="userSpaceOnUse" x1="1082.803" y1="940.0231" x2="1084.7372" y2="830.4167" gradientTransform="matrix(0.9983 0.0574 -0.0574 0.9983 59.623 -55.2743)">
					<stop  offset="0.0416" style="stop-color:#FFACAC"/>
					<stop  offset="0.2198" style="stop-color:#FEA5A5"/>
					<stop  offset="0.4781" style="stop-color:#FD9391"/>
					<stop  offset="0.7839" style="stop-color:#FB7672"/>
					<stop  offset="0.9012" style="stop-color:#FA6964"/>
				</linearGradient>
				<path style="fill:url(#SVGID_00000154425148342962994340000017169092303791514526_);" d="M1097.075,852.097
					c5.985-2.697,10.719-7.974,14.189-13.129c-8.776,4.456-21.874,8.4-39.578,7.369l-0.734,3.056
					c-0.312-0.047-0.611-0.13-0.932-0.148c-5.717-0.329-10.618,4.039-10.947,9.756c-0.275,4.775,2.747,8.942,7.075,10.389
					l-0.888,3.698c-3.646,15.179,5.702,30.439,20.881,34.086c15.178,3.647,30.439-5.702,34.086-20.881l6.583-27.402
					c1.703-7.088,0.544-14.179-2.692-20.112C1115.021,849.407,1097.075,852.097,1097.075,852.097z"/>
			</g>
		</g>
		<g>
			
				<linearGradient id="SVGID_00000134952180292478394820000004724306523031589017_" gradientUnits="userSpaceOnUse" x1="817.4503" y1="1698.6744" x2="767.5834" y2="1572.0125" gradientTransform="matrix(-0.8845 0.4665 0.4665 0.8845 1310.0345 -290.9855)">
				<stop  offset="0.3006" style="stop-color:#FFACAC"/>
				<stop  offset="0.3915" style="stop-color:#FEA5A5"/>
				<stop  offset="0.5231" style="stop-color:#FD9391"/>
				<stop  offset="0.679" style="stop-color:#FB7672"/>
				<stop  offset="0.7388" style="stop-color:#FA6964"/>
			</linearGradient>
			<path style="fill:url(#SVGID_00000134952180292478394820000004724306523031589017_);" d="M1346.5,1470.176l19.298,36.586
				l66.87-1.098c0,0,19.267,2.428,7.051,13.368l-87.946,46.389c0,0-19.29,12.873-29.991-21.053l-26.218-47.325L1346.5,1470.176z"/>
			<path style="fill:#050542;" d="M987.219,1156.393h223.688c0,0,55.204,13.283,155.399,327.377l-71.513,29.721l-150.678-245.843
				C1144.115,1267.649,928.132,1328.346,987.219,1156.393z"/>
			<path style="fill:#BBE0F8;" d="M1258.848,1456.445c-0.54,0-1.067-0.272-1.37-0.767l-71.676-116.945
				c-0.463-0.755-0.226-1.742,0.53-2.206c0.753-0.465,1.743-0.225,2.206,0.53l71.676,116.945c0.463,0.755,0.226,1.742-0.53,2.206
				C1259.423,1456.369,1259.133,1456.445,1258.848,1456.445z"/>
			<path style="fill:#BBE0F8;" d="M1300.622,1303.469c-0.64,0-1.244-0.386-1.493-1.018c-0.193-0.491-19.698-49.755-52.51-104.122
				c-0.458-0.759-0.215-1.745,0.544-2.202c0.761-0.46,1.746-0.214,2.202,0.544c32.959,54.61,52.556,104.112,52.75,104.606
				c0.324,0.824-0.082,1.756-0.906,2.08C1301.017,1303.433,1300.817,1303.469,1300.622,1303.469z"/>
		</g>
	</g>
</g>
<g id="table">
	<g>
		<polygon style="fill:#BBE0F8;" points="795.014,1173.841 696.821,1608.07 714.352,1608.07 833.222,1173.841 		"/>
		<polygon style="fill:#72C4F4;" points="833.222,1173.841 824.271,1206.54 787.62,1206.54 795.014,1173.841 		"/>
	</g>
	<g>
		<polygon style="fill:#BBE0F8;" points="885.813,1173.841 787.62,1608.07 805.151,1608.07 924.021,1173.841 		"/>
		<polygon style="fill:#72C4F4;" points="924.021,1173.841 915.07,1206.54 878.419,1206.54 885.813,1173.841 		"/>
	</g>
	<g>
		<g>
			<polygon style="fill:#BBE0F8;" points="1560.051,1178.776 1658.244,1613.005 1640.713,1613.005 1521.843,1178.776 			"/>
			<polygon style="fill:#72C4F4;" points="1521.843,1178.776 1530.794,1211.474 1567.445,1211.474 1560.051,1178.776 			"/>
		</g>
		<g>
			<polygon style="fill:#BBE0F8;" points="1469.252,1178.776 1567.445,1613.005 1549.914,1613.005 1431.044,1178.776 			"/>
			<polygon style="fill:#72C4F4;" points="1431.044,1178.776 1439.995,1211.474 1476.646,1211.474 1469.252,1178.776 			"/>
		</g>
	</g>
	<rect x="762.46" y="1155.915" style="fill:#BBE0F8;" width="835.654" height="35.853"/>
	<rect x="762.46" y="1155.915" style="fill:#72C4F4;" width="835.654" height="17.927"/>
	<rect x="738.27" y="1132.274" style="fill:#BBE0F8;" width="884.034" height="29.19"/>
</g>
<g id="pc">
	<path style="fill:#BBE0F8;" d="M1393.526,1069.372h-228.82c-12.031,0-21.231-10.724-19.402-22.615l20.343-132.23
		c1.473-9.576,9.713-16.645,19.402-16.645h228.82c12.031,0,21.231,10.724,19.402,22.615l-20.343,132.23
		C1411.455,1062.303,1403.215,1069.372,1393.526,1069.372z"/>
	<path style="fill:#72C4F4;" d="M1259.518,995.958l20.599,125.88h-33.208c-5.631,0-10.196,4.565-10.196,10.195v3.159h93.405
		c6.208,0,10.975-5.501,10.092-11.645l-18.773-130.686c-0.721-5.019-5.021-8.746-10.092-8.746h-41.766
		C1263.292,984.116,1258.502,989.752,1259.518,995.958z"/>
	<path style="fill:#007CF4;" d="M1158.109,1042.878c-0.08,0-0.161-0.006-0.243-0.019c-0.865-0.133-1.459-0.942-1.325-1.808
		l18.425-119.762c0.133-0.865,0.942-1.457,1.808-1.325c0.865,0.133,1.459,0.942,1.325,1.808l-18.425,119.762
		C1159.554,1042.317,1158.878,1042.878,1158.109,1042.878z"/>
</g>
<path d="M1899.116,1617.101H277.925c-2.262,0-4.096-1.834-4.096-4.096s1.834-4.096,4.096-4.096h1621.191
	c2.263,0,4.096,1.834,4.096,4.096S1901.379,1617.101,1899.116,1617.101z"/>
</svg>
