<?xml version="1.0" standalone="no"?>
<!DOCTYPE svg PUBLIC "-//W3C//DTD SVG 20010904//EN"
 "http://www.w3.org/TR/2001/REC-SVG-20010904/DTD/svg10.dtd">
<svg version="1.0" xmlns="http://www.w3.org/2000/svg"
 width="128.000000pt" height="128.000000pt" viewBox="0 0 128.000000 128.000000"
 preserveAspectRatio="xMidYMid meet">

<g transform="translate(0.000000,128.000000) scale(0.100000,-0.100000)"
fill="#000000" stroke="none">
<path d="M561 873 c-26 -9 -65 -36 -91 -62 -106 -106 -107 -266 -2 -373 109
-113 284 -111 387 4 49 54 68 101 69 173 1 81 -24 141 -82 197 -76 74 -180 97
-281 61z m200 -38 c44 -23 98 -80 116 -124 8 -19 15 -61 15 -92 0 -129 -102
-231 -231 -231 -69 0 -115 18 -162 63 -68 64 -93 150 -68 236 15 57 95 143
149 161 47 15 138 8 181 -13z"/>
<path d="M580 688 c0 -34 -3 -87 -7 -117 -5 -48 -4 -53 13 -49 13 2 20 13 22
37 l3 34 40 -39 c30 -30 42 -35 51 -26 9 9 4 21 -26 51 l-39 39 36 58 c34 53
38 74 17 74 -4 0 -23 -24 -41 -52 l-34 -53 -5 49 c-8 76 -30 72 -30 -6z"/>
</g>
</svg>
